<?xml version="1.0" standalone="no"?>
<!DOCTYPE svg PUBLIC "-//W3C//DTD SVG 1.1//EN" "http://www.w3.org/Graphics/SVG/1.1/DTD/svg11.dtd" >
<svg xmlns="http://www.w3.org/2000/svg">
<metadata>Generated by IcoMoon</metadata>
<defs>
<font id="CDSIcons" horiz-adv-x="1024">
<font-face units-per-em="1024" ascent="960" descent="-64" />
<missing-glyph horiz-adv-x="1024" />
<glyph unicode="&#x20;" horiz-adv-x="512" d="" />
<glyph unicode="&#xe900;" glyph-name="cds-ico-accept" d="M434.5 123.453c-11.395 0-19.771 5.317-25.85 15.217l-195.412 311.751c-2.279 3.797-3.798 8.356-3.798 13.697 0 7.594 2.279 14.455 7.596 19.014s11.394 6.836 17.495 6.836c9.115 0 16.735-3.797 22.052-12.153l177.158-281.346 310.993 547.473c4.555 8.355 12.153 12.154 22.053 12.154 6.836 0 12.935-1.519 18.252-6.077s7.598-11.394 7.598-19.774c0-4.558-0.762-8.356-3.039-12.154l-328.487-579.4c-6.836-10.633-15.217-15.213-25.85-15.213l-0.762-0.025z" />
<glyph unicode="&#xe901;" glyph-name="cds-ico-alert" d="M473.609 248.017c0 21.389 17.429 39.612 38.818 39.612s38.822-18.223 38.822-39.612c0-21.389-17.434-39.612-38.822-39.612s-38.818 18.223-38.818 39.612zM483.917 561.656v0.791c0 15.059 11.081 26.137 26.138 26.137s26.138-11.078 26.138-26.137v-210.673c0-15.061-11.081-26.138-26.138-26.138s-26.138 11.076-26.138 26.138v209.882zM164.716 143.471h693.819l-346.129 601.166-347.69-601.166zM909.227 160.090v0.789c5.538-7.121 7.91-16.64 7.91-26.138 0-23.761-19.806-43.567-43.567-43.567h-722.356c-23.763 0-44.361 19.806-44.361 43.567 0 9.498 2.374 18.223 7.913 25.348l358.001 620.179c7.121 15.059 22.178 24.554 39.612 24.554s31.676-8.704 38.822-24.554l358.025-620.179z" />
<glyph unicode="&#xe902;" glyph-name="cds-ico-alert-solid" d="M909.171 160.93v-0.794l-357.973 620.084c-7.147 15.848-21.385 24.55-38.814 24.55-17.434 0-32.486-9.494-39.607-24.55l-357.948-620.084c-5.538-7.121-7.912-15.846-7.912-25.34 0-23.761 20.595-43.563 44.354-43.563h722.248c23.757 0 43.563 19.802 43.563 43.563 0 9.493-2.372 19.012-7.91 26.133zM483.494 549.347c0 15.057 11.076 26.132 26.133 26.132 15.053 0 26.129-11.076 26.129-26.132v-210.642c0-15.057-11.076-26.133-26.129-26.133-15.057 0-26.133 11.076-26.133 26.133v210.642zM473.182 234.965c0 21.385 17.434 39.607 38.818 39.607s38.814-18.223 38.814-39.607c0-21.385-17.429-39.607-38.814-39.607s-38.818 18.223-38.818 39.607z" />
<glyph unicode="&#xe903;" glyph-name="cds-ico-arrow-down" d="M272.401 364.041l212.258-213.841v658.977c0 15.059 12.659 26.928 26.927 26.928 15.061 0 26.927-11.869 26.927-26.928v-658.977l213.052 213.841c5.538 5.538 11.87 7.91 19.012 7.91 15.061 0 26.931-12.659 26.931-26.927 0-7.121-2.377-13.478-7.915-19.017l-258.991-258.202c-4.749-4.745-11.87-7.91-19.017-7.91s-13.474 2.372-19.017 7.91l-258.199 258.202c-5.539 5.538-7.913 11.87-7.913 19.017 0 15.851 12.685 26.927 26.928 26.927 7.121 0 13.476-2.372 19.015-7.91z" />
<glyph unicode="&#xe904;" glyph-name="cds-ico-arrowhead-left" d="M574.767 215.142c5.542-5.538 7.915-19.017 7.915-26.138 0-14.268-12.659-26.927-27.721-26.927-7.121 0-12.659 2.372-18.223 7.91l-258.2 259.785c-4.748 4.749-7.913 11.87-7.913 19.017s2.374 13.474 7.913 19.012l258.2 258.202c5.538 5.539 11.076 7.913 18.223 7.913 13.478 0 27.721-11.869 27.721-26.928 0-7.121-7.915-19.015-7.915-19.015l-239.184-240.793 239.184-232.038z" />
<glyph unicode="&#xe905;" glyph-name="cds-ico-arrowhead-left-end" d="M493.679 448.657l242.304-240.725c0 0 7.91-11.866 7.91-19.008 0-15.053-13.47-26.918-26.918-26.918-7.121 0-13.474 2.372-19.008 7.91l-258.129 258.125c-5.538 5.538-7.91 11.866-7.91 19.012 0 7.142 3.166 14.263 7.91 19.008l258.129 259.71c5.534 5.537 11.866 7.91 19.008 7.91 15.053 0 26.918-12.657 26.918-26.92 0-7.12-2.372-13.472-7.91-19.010l-242.304-239.094zM305.187 162.918c-13.865 0-25.104 11.243-25.104 25.105v520.873c0 13.865 11.24 25.104 25.104 25.104s25.104-11.239 25.104-25.104v-520.873c0-13.862-11.24-25.105-25.104-25.105z" />
<glyph unicode="&#xe906;" glyph-name="cds-ico-arrowhead-right" d="M691.58 447.181l-242.377 240.793c0 0-7.91 11.869-7.91 19.015 0 15.059 13.474 26.928 26.927 26.928 7.121 0 13.474-2.374 19.017-7.913l258.197-258.202c5.542-5.538 7.915-11.866 7.915-19.012s-3.166-14.268-7.915-19.017l-258.197-259.785c-5.542-5.538-11.87-7.91-19.017-7.91-15.057 0-26.927 12.659-26.927 26.927 0 7.121 2.372 13.478 7.91 19.017l242.377 239.159z" />
<glyph unicode="&#xe907;" glyph-name="cds-ico-arrowhead-right-end" d="M530.3 447.347l-242.306 240.723c0 0-7.91 11.866-7.91 19.010 0 15.055 13.472 26.92 26.921 26.92 7.119 0 13.472-2.373 19.010-7.91l258.127-258.126c5.538-5.538 7.91-11.866 7.91-19.012 0-7.142-3.166-14.263-7.91-19.008l-258.127-259.712c-5.537-5.534-11.866-7.91-19.010-7.91-15.055 0-26.921 12.659-26.921 26.923 0 7.117 2.373 13.47 7.91 19.008l242.306 239.095zM718.793 733.084c13.862 0 25.101-11.239 25.101-25.104v-520.873c0-13.862-11.238-25.101-25.101-25.101-13.867 0-25.105 11.238-25.105 25.101v520.873c0 13.865 11.238 25.104 25.105 25.104z" />
<glyph unicode="&#xe908;" glyph-name="cds-ico-arrow-left" d="M899.708 448.789c0-15.061-11.866-26.927-26.927-26.927h-656.603l212.26-213.841c5.538-5.538 7.91-11.87 7.91-19.017 0-14.268-11.869-26.927-26.927-26.927-7.121 0-13.476 2.372-19.015 7.91l-258.201 259.785c-4.748 4.749-7.913 11.87-7.913 19.017s2.374 13.474 7.913 19.012l258.201 258.202c5.539 5.539 11.869 7.913 19.015 7.913 13.476 0 26.927-11.869 26.927-26.928 0-7.121-2.372-13.476-7.91-19.015l-212.26-213.84h656.603c15.061 0 26.927-11.076 26.927-25.344z" />
<glyph unicode="&#xe909;" glyph-name="cds-ico-arrow-right" d="M124.292 448.789c0 14.268 11.869 25.344 26.928 25.344h658.188l-213.841 213.84c-5.538 5.539-7.915 11.869-7.915 19.015 0 15.059 13.478 26.928 26.927 26.928 7.125 0 13.478-2.374 19.017-7.913l258.202-258.202c5.538-5.538 7.91-11.866 7.91-19.012s-3.162-14.268-7.91-19.017l-258.202-259.785c-5.538-5.538-11.87-7.91-19.017-7.91-15.057 0-26.927 12.659-26.927 26.927 0 7.121 2.377 13.478 7.915 19.017l213.841 213.841h-658.188c-15.059 0-26.928 11.866-26.928 26.927z" />
<glyph unicode="&#xe90a;" glyph-name="cds-ico-arrow-up" d="M484.659 745.801l-212.258-213.841c-5.539-5.538-11.869-7.91-19.015-7.91-14.268 0-26.928 11.076-26.928 26.927 0 7.121 2.374 13.476 7.913 19.015l258.199 258.201c5.542 5.539 11.87 7.913 19.017 7.913s14.268-3.165 19.017-7.913l258.991-258.201c5.538-5.539 7.915-11.869 7.915-19.015 0-14.268-11.87-26.927-26.931-26.927-7.121 0-13.474 2.372-19.012 7.91l-213.052 213.841v-658.978c0-15.057-11.866-26.927-26.927-26.927-14.268 0-26.927 11.87-26.927 26.927v658.978z" />
<glyph unicode="&#xe90b;" glyph-name="cds-ico-bar-graph" d="M711.885 366.911c0 14.455 11.395 25.088 25.85 25.088s25.092-10.633 25.092-25.088v-180.199c0-14.455-10.637-25.088-25.092-25.088s-25.85 10.633-25.85 25.088v180.199zM561.336 737.959c0 14.457 11.395 25.091 25.85 25.091 14.459 0 25.092-10.634 25.092-25.091v-551.267c0-9.118-10.633-25.092-25.092-25.092-14.455 0-25.85 15.974-25.85 25.092v551.267zM411.55 530.395c0 14.455 9.875 25.089 24.33 25.089 14.459 0 25.854-10.634 25.854-25.089v-343.683c0-14.455-11.395-25.088-25.854-25.088-14.455 0-24.33 10.633-24.33 25.088v343.683zM311.162 186.712c0-14.455-11.394-25.088-25.851-25.088s-25.091 10.633-25.091 25.088v440.248c0 14.456 10.634 25.091 25.091 25.091s25.851-10.634 25.851-25.091v-440.248z" />
<glyph unicode="&#xe90c;" glyph-name="cds-ico-bell" d="M578.47 142.393c0-14.459-11.395-25.854-25.85-25.854h-59.298c-14.459 0-25.854 11.395-25.854 25.854 0 14.455 11.395 25.85 25.854 25.85h59.298c14.455 0 25.85-11.395 25.85-25.85zM522.969 697.459c-85.172 0-137.633-51.702-137.633-136.874v-39.549c0-127.734-33.447-198.447-70.715-255.492h416.675c-37.27 57.020-70.717 127.734-70.717 255.472v39.546c0 85.172-52.462 136.874-137.634 136.874l0.025 0.024zM522.969 749.16c55.501 0 103.404-18.255 136.876-51.701 34.206-34.207 52.457-81.35 52.457-136.874v-39.549c0-124.695 32.69-184.017 72.237-241.795 4.559-6.836 6.836-14.455 6.836-22.811 0-22.815-19.014-42.586-41.828-42.586h-453.181c-22.812 0-41.826 19.771-41.826 42.586 0 8.356 2.279 15.974 6.836 22.811 39.548 57.778 72.235 117.101 72.235 241.795v39.549c0 55.5 18.255 103.403 51.701 136.874 34.208 34.207 82.11 51.701 137.632 51.701h0.025z" />
<glyph unicode="&#xe90d;" glyph-name="cds-ico-bell-close" d="M764.117 549.927c5.111 5.11 11.942 7.399 18.756 7.399s12.493-2.271 17.621-7.399c5.129-5.128 8.533-11.942 8.533-18.757s-3.405-12.489-8.533-17.617l-64.111-64.111 64.111-64.107c5.679-5.679 8.533-13.077 8.533-19.891s-2.837-13.060-8.533-18.756c-5.111-5.111-11.375-7.966-18.756-8.533s-14.195 2.837-19.891 8.533l-64.107 64.111-64.111-64.111c-5.107-5.107-10.803-8.533-17.617-8.533s-13.628 3.405-18.756 8.533c-5.129 5.129-7.381 10.79-7.398 17.621s2.27 13.628 7.398 18.756l64.107 64.107-64.107 64.107c-5.679 5.679-8.533 11.942-7.966 19.324s2.837 14.196 7.966 19.324c5.679 5.678 12.51 7.967 19.324 7.967s13.628-2.271 19.324-7.967l64.107-64.107 64.107 64.107zM603.413 694.269c-51.563 42.67-124.335 50.85-182.423 0.394-38.31-33.276-43.358-75.316-43.563-129.764-0.023-6.114 0.027-12.425 0.078-18.898 0.382-48.465 0.836-106.035-28.644-157.961-26.17-46.093-57.51-88.397-83.518-120.563-0.153-0.192-0.215-0.337-0.215-0.337s-0.030-0.085-0.037-0.158c-0.017-0.175 0.009-0.512 0.181-0.887 0.090-0.192 0.18-0.316 0.24-0.388h441.294c13.858 0 25.092-11.234 25.092-25.092s-11.234-25.097-25.092-25.097h-441.225c-43.889 0-65.443 51.132-39.266 83.511 25.033 30.963 54.565 70.925 78.903 113.792 22.388 39.433 22.228 82.624 22.045 132.422-0.024 6.5-0.048 13.113-0.023 19.845 0.209 55.738 4.545 118.568 60.838 167.464 79.679 69.207 180.151 55.974 247.329 0.381 10.679-8.835 12.173-24.653 3.337-35.33s-24.653-12.17-35.332-3.334zM455.236 141.423c0 13.858 11.234 25.092 25.092 25.092h64.533c13.858 0 25.092-11.234 25.092-25.092s-11.234-25.092-25.092-25.092h-64.533c-13.858 0-25.092 11.234-25.092 25.092z" />
<glyph unicode="&#xe90e;" glyph-name="cds-ico-bell-discard" d="M571.426 470.95c0 13.862 11.238 25.101 25.101 25.101h198.571c13.862 0 25.101-11.238 25.101-25.101s-11.238-25.101-25.101-25.101h-198.571c-13.862 0-25.101 11.238-25.101 25.101zM592.38 694.355c-51.58 42.684-124.378 50.867-182.487 0.394-38.323-33.287-43.373-75.341-43.578-129.807-0.023-6.115 0.027-12.429 0.078-18.905 0.382-48.484 0.837-106.071-28.653-158.013-26.179-46.106-57.53-88.427-83.546-120.606-0.154-0.188-0.215-0.333-0.215-0.333s-0.030-0.090-0.037-0.162c-0.018-0.175 0.009-0.508 0.181-0.883 0.090-0.196 0.18-0.32 0.24-0.388l0.069-0.004h441.375c13.862 0 25.101-11.238 25.101-25.101s-11.238-25.101-25.101-25.101h-441.375c-43.904 0-65.465 51.149-39.279 83.537 25.041 30.972 54.583 70.95 78.929 113.83 22.395 39.445 22.236 82.654 22.053 132.466-0.024 6.502-0.048 13.117-0.023 19.852 0.21 55.757 4.547 118.608 60.859 167.52 79.703 69.231 180.212 55.993 247.412 0.381 10.684-8.838 12.177-24.662 3.337-35.343-8.836-10.68-24.661-12.174-35.341-3.335zM444.151 141.325c0 13.862 11.238 25.101 25.101 25.101h64.555c13.862 0 25.101-11.238 25.101-25.101 0-13.867-11.238-25.105-25.101-25.105h-64.555c-13.862 0-25.101 11.238-25.101 25.105z" />
<glyph unicode="&#xe90f;" glyph-name="cds-ico-bell-strike" d="M827.269 758.463c8.72 10.054 7.639 25.274-2.417 33.994-10.052 8.72-25.272 7.639-33.993-2.416l-102.719-118.436c-7.68 13.737-17.134 26.259-28.283 37.406-33.473 33.452-81.383 51.71-136.892 51.71-55.534 0-103.469-17.498-137.679-51.71-33.452-33.476-51.709-81.387-51.709-136.895v-39.554c0-124.715-32.693-184.046-72.246-241.832-4.558-6.84-6.838-14.459-6.838-22.819 0-22.815 19.017-42.59 41.833-42.59h4.753l-82.446-95.060c-8.72-10.056-7.638-25.276 2.416-33.993 10.054-8.72 25.274-7.639 33.994 2.413l109.833 126.64h384.704c22.815 0 41.832 19.775 41.832 42.59 0 8.36-2.281 15.978-6.84 22.819-39.551 57.786-72.245 117.117-72.245 241.832v39.554c0 16.842-1.679 32.912-4.973 48.084l119.914 138.263zM651.211 629.025c-18.657 50.724-64.213 79.962-128.27 79.962-85.185 0-137.631-51.686-137.631-136.871v-39.554c0-127.754-33.452-198.48-70.726-255.533h31.343l305.284 351.996zM409.723 277.029l250.872 289.257v-33.748c0-127.754 33.452-198.48 70.726-255.508h-321.597zM552.616 128.004c14.459 0 25.858 11.395 25.858 25.854s-11.399 25.854-25.858 25.854h-59.306c-14.459 0-25.854-11.395-25.854-25.854s11.395-25.854 25.854-25.854h59.306z" />
<glyph unicode="&#xe910;" glyph-name="cds-ico-bookmark" d="M270 154.539v552.058c0 38.822 30.884 69.706 68.915 69.706h346.129c38.033 0 68.915-30.884 68.915-69.706v-551.268c0-18.223-17.434-34.837-35.631-34.837-6.332 0-12.659 1.583-18.223 5.538l-187.703 147.324-188.496-148.117c-6.33-3.955-12.685-5.538-19.015-5.538-18.224 0-34.841 15.061-34.841 34.842h-0.049zM534.554 324.809l165.551-133.845v510.861c0 13.476-10.287 23.763-23.765 23.763h-328.696c-13.476 0-23.763-10.287-23.763-23.763v-511.654l166.338 134.639c7.121 5.538 15.851 8.704 22.182 8.704 6.327 0 15.031-2.372 22.153-8.704z" />
<glyph unicode="&#xe911;" glyph-name="cds-ico-bookmark-solid" d="M270 154.539v552.058c0 38.822 30.884 69.706 68.915 69.706h346.129c38.033 0 68.915-30.884 68.915-69.706v-551.268c0-18.223-17.434-34.837-35.631-34.837-6.332 0-12.659 1.583-18.223 5.538l-187.703 147.324-188.496-148.117c-6.33-3.955-12.685-5.538-19.015-5.538-18.224 0-34.841 15.061-34.841 34.842h-0.049z" />
<glyph unicode="&#xe912;" glyph-name="cds-ico-bulb" d="M592.397 80.491c0-15.057-11.87-25.344-26.927-25.344h-108.501c-14.268 0-26.138 10.287-26.138 25.344 0 14.268 11.87 25.348 26.138 25.348h108.501c15.057 0 26.927-11.081 26.927-25.348zM635.968 183.458c0-15.061-12.663-26.931-26.931-26.931h-194.057c-15.059 0-26.928 11.87-26.928 26.931 0 15.057 11.869 25.344 26.928 25.344h194.057c14.268 0 26.931-10.287 26.931-25.344zM638.34 482.85c34.048 33.259 51.482 79.994 51.482 126.729 0 102.964-79.991 182.165-178.206 182.165-97.427 0-177.419-79.201-177.419-182.165 0-46.734 17.433-93.47 50.691-126.729 36.423-36.42 57.020-83.157 57.020-134.639v-38.029h140.203v38.029c0 51.482 19.806 99.008 56.23 134.639zM511.616 840.852c128.307 0 232.064-102.964 232.064-231.273 0-61.769-24.555-119.603-68.126-163.149-25.344-26.138-39.612-60.979-39.612-98.219v-50.688c0-20.599-17.434-38.033-38.029-38.033h-171.88c-20.598 0-38.006 17.434-38.006 38.033v50.688c0 37.218-14.268 71.292-39.613 96.636-44.36 44.361-68.123 102.963-68.123 164.732 0 128.309 103.755 231.273 231.273 231.273h0.051z" />
<glyph unicode="&#xe913;" glyph-name="cds-ico-calendar" d="M523.018 524.583c8.356 0 15.974-3.039 21.291-8.356 5.317-5.321 7.598-12.157 7.598-22.053v-179.438c0-7.594-3.039-14.455-7.598-19.775-4.559-5.317-10.633-7.594-18.256-7.594-7.619 0-13.697 2.277-18.252 7.594-4.559 5.321-7.598 12.157-7.598 19.775v150.548l-32.686-12.157c-3.039-0.758-6.078-1.52-8.356-1.52-6.836 0-12.939 3.039-17.494 7.598-4.559 4.559-6.836 9.875-6.836 16.736 0 11.395 5.317 19.014 15.974 22.811l59.298 22.815c4.559 1.516 9.089 3.015 12.915 3.015zM725.266 193.057c7.594 0 14.455 3.039 19.771 8.356s7.598 12.153 7.598 20.533v412.115c0 8.355-2.281 15.976-7.598 21.293s-12.153 7.596-19.771 7.596h-53.981v-42.586c0-7.596-2.281-13.697-6.836-18.255-4.559-4.558-11.395-7.596-19.014-7.596-6.84 0-12.939 3.038-18.256 7.596s-7.598 10.635-7.598 18.255v42.586h-214.424v-42.586c0-7.596-2.279-13.697-6.837-18.255s-11.394-7.596-19.014-7.596c-6.837 0-12.937 3.038-18.255 7.596s-7.596 10.635-7.596 18.255v42.586h-53.98c-7.596 0-14.457-2.279-19.774-7.596s-7.596-12.937-7.596-21.293v-412.115c0-8.356 2.279-15.217 7.596-20.533s12.177-8.356 19.774-8.356h425.791zM725.266 711.613c11.391 0 21.291-1.519 31.166-6.077s18.256-9.875 25.092-16.735c6.836-6.86 12.935-15.976 16.732-25.091 3.801-9.115 6.078-19.774 6.078-29.648v-412.115c0-9.875-2.277-19.775-6.078-28.889-3.797-9.118-9.871-17.498-16.732-24.334s-15.217-12.935-25.092-17.494c-9.875-4.559-19.775-6.836-31.166-6.836h-425.815c-11.394 0-21.293 2.277-31.168 6.836s-18.255 10.637-25.091 17.494c-6.837 6.861-12.937 15.217-16.735 24.334-3.798 9.114-6.077 19.014-6.077 28.889v412.115c0 9.875 2.279 20.533 6.077 29.648s9.875 18.255 16.735 25.091c6.86 6.837 15.216 12.154 25.091 16.735s19.774 6.077 31.168 6.077h53.98v42.586c0 7.596 2.279 14.456 7.596 19.014s11.394 6.837 18.255 6.837c7.596 0 14.456-2.279 19.014-6.837s6.837-11.394 6.837-19.014v-42.586h214.428v42.586c0 7.596 2.277 14.456 7.594 19.014s11.395 6.837 18.256 6.837c7.594 0 14.455-2.279 19.014-6.837s6.836-11.394 6.836-19.014v-42.586h54.006z" />
<glyph unicode="&#xe914;" glyph-name="cds-ico-calendar-empty" d="M733.798 167.62c7.91 0 15.057 3.166 20.595 8.704s7.915 12.659 7.915 21.389v429.288c0 8.704-2.377 16.641-7.915 22.18s-12.659 7.913-20.595 7.913h-56.23v-44.361c0-7.913-2.377-14.267-7.121-19.015-4.749-4.748-11.87-7.913-19.806-7.913-7.125 0-13.478 3.165-19.017 7.913s-7.915 11.078-7.915 19.015v44.361h-223.359v-44.361c0-7.913-2.374-14.267-7.121-19.015s-11.869-7.913-19.807-7.913c-7.121 0-13.476 3.165-19.015 7.913s-7.913 11.078-7.913 19.015v44.361h-56.23c-7.913 0-15.059-2.374-20.597-7.913s-7.913-13.476-7.913-22.18v-429.288c0-8.704 2.374-15.851 7.913-21.389s12.685-8.704 20.597-8.704h443.533zM733.798 707.785c11.866 0 22.178-1.583 32.465-6.33s19.017-10.287 26.138-17.433c7.121-7.146 13.474-16.641 17.429-26.136 3.959-9.495 6.332-20.598 6.332-30.884v-429.288c0-10.287-2.372-20.599-6.332-30.093-3.955-9.493-10.283-18.223-17.429-25.344s-15.851-13.478-26.138-18.227c-10.287-4.745-20.599-7.121-32.465-7.121h-443.557c-11.869 0-22.18 2.377-32.467 7.121-10.287 4.749-19.015 11.081-26.137 18.227s-13.476 15.851-17.433 25.344c-3.956 9.493-6.33 19.806-6.33 30.093v429.288c0 10.287 2.374 21.389 6.33 30.884s10.287 19.015 17.433 26.136c7.146 7.121 15.85 12.66 26.137 17.433s20.598 6.33 32.467 6.33h56.229v44.361c0 7.913 2.374 15.059 7.913 19.806s11.869 7.121 19.015 7.121c7.913 0 15.059-2.374 19.806-7.121s7.121-11.869 7.121-19.806v-44.361h223.362v44.361c0 7.913 2.372 15.059 7.91 19.806s11.87 7.121 19.017 7.121c7.91 0 15.057-2.374 19.806-7.121s7.121-11.869 7.121-19.806v-44.361h56.256z" />
<glyph unicode="&#xe915;" glyph-name="cds-ico-capacitive" d="M414.196 740.794c4.559 4.558 11.395 7.596 18.256 7.596 6.857 0 13.693-3.038 18.252-7.596 5.317-4.558 8.356-11.394 8.356-18.255v-521.598c0-6.836-3.039-12.935-8.356-17.494-4.559-4.559-11.395-7.594-18.252-7.594-6.861 0-13.697 3.035-18.256 7.594s-7.597 10.637-7.597 17.494v236.478h-147.508c-6.837 0-13.697 3.039-18.255 7.598s-7.596 11.395-7.596 18.256c0 6.857 3.038 13.697 7.596 18.252 4.558 4.559 10.634 7.598 17.495 7.598h148.268v233.439c0 6.837 3.038 13.697 7.597 18.255v-0.024zM799.703 481.526c4.555-4.555 6.836-11.395 6.836-18.252 0-6.861-2.281-13.697-6.836-18.256-4.559-4.559-11.395-7.598-18.256-7.598h-148.267v-236.478c0-13.697-11.395-25.088-25.092-25.088h-0.762c-6.836 0-13.697 3.035-18.252 7.594-5.317 4.559-8.356 10.637-8.356 17.494v521.598c0 6.837 3.039 13.697 8.356 18.255 4.555 4.558 11.395 7.596 18.252 7.596h0.762c13.697 0 25.092-12.154 25.092-25.851v-233.44h148.267c6.836 0 13.697-3.039 18.256-7.598v0.025z" />
<glyph unicode="&#xe916;" glyph-name="cds-ico-chat-bubble" d="M774.929 303.949c7.915 0 15.057 2.372 20.599 7.91 5.538 5.542 7.91 13.478 7.91 22.182v304.144c0 8.704-2.372 15.85-7.91 21.389-5.542 5.539-12.663 8.704-20.599 8.704h-525.921c-7.913 0-15.059-3.165-20.598-8.704s-7.913-12.685-7.913-21.389v-304.144c0-8.704 2.374-16.64 7.913-22.182 5.539-5.538 12.685-7.91 20.598-7.91h75.244c8.704 0 17.433-3.955 24.554-11.076s10.287-15.061 10.287-23.765v-93.466l113.248 114.065c9.498 9.493 21.393 14.268 34.842 14.268l267.746-0.026zM774.929 718.969c11.87 0 22.182-2.374 32.465-7.121 10.287-4.748 19.017-11.078 26.138-18.224s13.478-15.85 17.434-25.345c3.955-9.495 6.332-19.806 6.332-30.093v-304.144c0-10.287-2.377-21.389-6.332-30.886-3.955-9.493-10.287-19.012-17.434-26.133s-15.851-12.663-26.138-17.434c-10.283-4.774-20.595-6.332-32.465-6.332h-264.529l-150.491-150.49c-7.121-7.121-15.059-11.076-23.763-11.076-7.913 0-15.059 2.372-21.389 7.915-6.33 5.538-9.495 15.057-9.495 26.927v126.724h-56.23c-11.869 0-22.18 1.583-32.466 6.332s-19.015 10.287-26.137 17.434c-7.121 7.147-13.476 16.64-17.433 26.133-3.956 9.498-6.33 20.599-6.33 30.886v304.144c0 10.287 2.374 20.597 6.33 30.093s10.287 18.224 17.433 25.345c7.146 7.121 15.85 13.476 26.137 18.224s20.597 7.121 32.466 7.121h525.897z" />
<glyph unicode="&#xe917;" glyph-name="cds-ico-chat-bubble-arrow" d="M511.181 356.651c7.147 0 13.474 3.162 19.012 8.7l101.828 101.039c5.538 5.538 9.493 11.891 9.493 19.012 0 7.932-3.166 14.263-8.7 19.797-5.538 5.538-11.891 8.704-19.802 8.704-7.142 0-13.474-3.166-19.008-8.704l-57.485-59.857v281.809c0 7.145-1.583 13.473-6.327 18.22-4.749 4.746-11.866 7.119-19.012 7.119-7.142 0-12.681-2.373-17.425-7.119s-7.91-11.1-7.91-18.22v-281.809l-55.902 59.857c-5.538 5.538-11.89 8.704-19.009 8.704-7.935 0-15.055-3.166-20.593-8.704-5.536-5.534-7.91-11.887-7.91-19.797 0-7.147 2.374-13.474 7.91-19.012l101.831-101.039c5.538-5.538 11.866-8.7 19.008-8.7zM248.461 689.72c-41.584 0-75.294-33.71-75.294-75.294v-313.724c0-41.587 33.711-75.294 75.294-75.294h62.745v-129.498c0-34.85 43.272-50.991 66.097-24.657l133.597 154.155h264.619c41.587 0 75.294 33.707 75.294 75.294v313.724c0 41.584-33.707 75.294-75.294 75.294h-100.39c-13.862 0-25.097-11.236-25.097-25.098s11.234-25.098 25.097-25.098h100.39c13.862 0 25.101-11.236 25.101-25.098v-313.724c0-13.862-11.238-25.101-25.101-25.101h-264.619c-14.554 0-28.395-6.319-37.931-17.318l-111.567-128.734v95.859c0 27.721-22.474 50.193-50.196 50.193h-62.745c-13.862 0-25.098 11.238-25.098 25.101v313.724c0 13.862 11.236 25.098 25.098 25.098h100.392c13.862 0 25.098 11.236 25.098 25.098s-11.236 25.098-25.098 25.098h-100.392z" />
<glyph unicode="&#xe918;" glyph-name="cds-ico-chat-bubble-dots" d="M511.62 482.035c21.389 0 39.616-17.438 39.616-38.827 0-21.393-18.227-39.616-39.616-39.616-21.393 0-38.827 18.223-38.827 39.616 0 21.389 17.434 38.827 38.827 38.827zM688.137 443.209c0 21.389-18.227 38.827-39.62 38.827-21.389 0-38.822-17.438-38.822-38.827 0-21.393 17.434-39.616 38.822-39.616 21.393 0 39.62 18.223 39.62 39.616zM374.719 482.035c21.391 0 39.617-17.438 39.617-38.827 0-21.393-18.226-39.616-39.617-39.616s-38.825 18.223-38.825 39.616c0 21.389 17.434 38.827 38.825 38.827zM807.462 675.544c-10.287 4.748-20.599 7.122-32.469 7.122h-525.952c-11.87 0-22.182-2.374-32.47-7.122s-18.992-11.104-26.139-18.225c-7.147-7.122-13.478-15.852-17.434-25.348s-6.331-19.808-6.331-30.096v-304.172c0-10.291 2.374-21.393 6.331-30.891 3.956-9.493 10.312-18.991 17.434-26.138s15.852-12.685 26.139-17.434c10.288-4.749 20.6-6.332 32.47-6.332h56.235v-126.741c0-11.87 3.165-21.389 9.496-26.927 6.331-5.542 13.478-7.915 21.391-7.915 8.705 0 16.643 3.955 23.765 11.076l150.505 150.507h264.559c11.87 0 22.182 1.557 32.469 6.332 10.287 4.77 18.991 10.313 26.138 17.434s13.478 16.644 17.434 26.138c3.959 9.498 6.332 20.599 6.332 30.891v304.172c0 10.288-2.372 20.6-6.332 30.096-3.955 9.496-10.313 18.201-17.434 25.348s-15.851 13.478-26.138 18.225zM795.593 275.52c-5.542-5.542-12.689-7.915-20.599-7.915l-267.776 0.026c-13.453 0-25.348-4.774-34.842-14.272l-113.263-114.078v93.478c0 8.704-3.165 16.644-10.287 23.765s-15.852 11.081-24.556 11.081h-75.252c-7.913 0-15.060 2.372-20.6 7.915-5.539 5.538-7.913 13.474-7.913 22.182v304.172c0 8.705 2.374 15.852 7.913 21.391s12.687 8.705 20.6 8.705h525.977c7.936 0 15.057-3.165 20.599-8.705 5.538-5.539 7.91-12.687 7.91-21.391v-304.172c0-8.708-2.372-16.644-7.91-22.182z" />
<glyph unicode="&#xe919;" glyph-name="cds-ico-chat-bubble-plus" d="M612.416 465.242c7.223 0 13.675-3.213 18.492-8.030 4.813-4.817 7.223-10.436 7.223-17.69s-2.411-14.477-7.223-19.294c-4.817-4.817-11.243-6.426-18.492-6.426h-73.079v-73.075c0-8.026-3.213-15.279-8.030-20.096s-11.238-7.223-19.294-7.223c-7.228 0-13.675 2.406-19.294 7.223-3.52 3.012-5.777 6.976-6.976 11.494-0.717 2.697-1.054 5.594-1.054 8.602v73.075h-73.074c-7.226 0-13.675 1.609-18.492 6.426s-7.226 12.041-7.226 19.294c0 7.253 2.409 12.847 7.226 17.69s11.24 8.030 18.492 8.030h73.074v73.076c0 8.029 2.411 14.477 8.030 19.294s12.045 8.029 19.294 8.029c8.030 0 14.477-3.211 19.294-8.029s8.030-11.242 8.030-19.294v-73.076h73.079zM774.993 676.266c11.87 0 22.182-2.373 32.469-7.12s19.017-11.078 26.138-18.222c7.121-7.146 13.478-15.849 17.434-25.344 3.959-9.492 6.332-19.805 6.332-30.089v-304.109c0-10.283-2.372-21.385-6.332-30.878-3.955-9.493-10.287-19.012-17.434-26.133s-15.851-12.659-26.138-17.429c-10.287-4.774-20.599-6.332-32.469-6.332h-264.559l-150.505-150.468c-7.122-7.121-15.062-11.076-23.765-11.076-7.914 0-15.060 2.372-21.391 7.91s-9.497 15.057-9.497 26.923v126.711h-56.235c-11.869 0-22.182 1.583-32.471 6.332-10.287 4.749-19.016 10.283-26.138 17.429-3.547 3.558-6.904 7.701-9.87 12.134-2.989 4.467-5.578 9.233-7.565 13.999-3.956 9.493-6.331 20.595-6.331 30.878v304.109c0 10.284 2.375 20.596 6.331 30.089 3.956 9.495 10.287 18.221 17.435 25.344 7.146 7.12 15.852 13.474 26.138 18.222 10.289 4.747 20.602 7.12 32.471 7.12h525.952zM774.993 261.295c7.91 0 15.057 2.372 20.599 7.915 5.538 5.538 7.915 13.474 7.915 22.174v304.109c0 8.703-2.377 15.849-7.915 21.385-5.542 5.539-12.663 8.703-20.599 8.703h-525.978c-7.911 0-15.060-3.164-20.599-8.703-5.539-5.536-7.914-12.682-7.914-21.385v-304.109c0-8.7 2.375-16.636 7.914-22.174 3.203-3.204 6.943-5.346 11.060-6.588 3.003-0.905 6.203-1.327 9.539-1.327h75.253c8.706 0 17.435-3.955 24.557-11.072 7.122-7.125 10.287-15.057 10.287-23.761v-93.461l113.263 114.052c9.493 9.498 21.389 14.272 34.842 14.272l267.776-0.030z" />
<glyph unicode="&#xe91a;" glyph-name="cds-ico-checkbox-checked" d="M701.18 543.235c4.907 4.905 8.998 11.442 8.998 19.641 0 8.195-4.092 15.55-8.998 20.455-4.907 4.902-12.275 8.17-20.48 8.17-8.209 0-15.569-3.269-20.476-8.17-11.456-11.442-198.016-216.244-198.016-216.244s-67.028 79.949-77.69 88.939c-4.908 4.902-11.455 7.356-18.844 7.356s-14.751-2.453-19.659-7.356c-4.911-5.722-9.001-13.077-9.001-21.274s3.272-15.552 9.001-21.269c0 0 58.845-73.412 80.963-95.475 8.179-8.994 20.476-14.737 33.57-14.737 13.090 0 25.387 5.722 33.566 14.737 11.516 11.925 52.335 55.505 111.514 120.243 27.904 30.524 50.837 55.889 67.311 74.103 15.684 17.344 25.51 28.207 28.19 30.881h0.051zM259.151 753.208c-27.722 0-50.193-22.471-50.193-50.193v-510.025c0-27.721 22.471-50.193 50.193-50.193h505.73c27.725 0 50.193 22.473 50.193 50.193v510.025c0 27.722-22.468 50.193-50.193 50.193h-505.73zM259.151 703.015h505.73v-510.025h-505.73v510.025z" />
<glyph unicode="&#xe91b;" glyph-name="cds-ico-checkbox-checked-solid" d="M208.958 703.015c0 27.721 22.472 50.193 50.193 50.193h505.73c27.721 0 50.193-22.472 50.193-50.193v-510.025c0-27.721-22.473-50.193-50.193-50.193h-505.729c-27.721 0-50.193 22.473-50.193 50.193v510.025zM701.18 543.237c4.907 4.903 8.998 11.441 8.998 19.638s-4.092 15.552-8.998 20.456c-4.911 4.903-12.271 8.172-20.48 8.172-8.205 0-15.569-3.269-20.48-8.172-11.452-11.441-198.012-216.243-198.012-216.243s-67.028 79.949-77.69 88.939c-4.909 4.902-11.454 7.356-18.843 7.356s-14.752-2.453-19.661-7.356c-4.909-5.722-9-13.077-9-21.274s3.273-15.552 9-21.274c0 0 58.847-73.408 80.964-95.475 8.179-8.986 20.476-14.733 33.566-14.733s25.391 5.722 33.57 14.733c11.516 11.93 52.335 55.509 111.514 120.247 27.904 30.524 50.842 55.885 67.315 74.103 15.68 17.344 25.506 28.208 28.186 30.883h0.051z" />
<glyph unicode="&#xe91c;" glyph-name="cds-ico-checkbox-indeterminate" d="M379.758 606.577h264.53c13.858 0 25.097-11.236 25.097-25.097v-266.959c0-13.858-11.238-25.097-25.097-25.097h-264.53c-13.861 0-25.097 11.238-25.097 25.097v266.959c0 13.86 11.236 25.097 25.097 25.097zM259.152 753.208c-27.721 0-50.193-22.472-50.193-50.193v-510.025c0-27.721 22.473-50.193 50.193-50.193h505.729c27.725 0 50.193 22.473 50.193 50.193v510.025c0 27.721-22.473 50.193-50.193 50.193h-505.729zM259.152 703.015h505.729v-510.025h-505.729v510.025z" />
<glyph unicode="&#xe91d;" glyph-name="cds-ico-checkbox-unchecked" d="M208.958 703.015c0 27.721 22.473 50.193 50.193 50.193h505.729c27.721 0 50.193-22.472 50.193-50.193v-510.025c0-27.721-22.468-50.193-50.193-50.193h-505.729c-27.721 0-50.193 22.473-50.193 50.193v510.025zM764.881 703.015h-505.729v-510.025h505.729v510.025z" />
<glyph unicode="&#xe91e;" glyph-name="cds-ico-check-circle" d="M698.752 551.189c0-8.198-4.092-14.736-8.998-19.639h-0.051c-5.491-5.483-41.037-45.41-95.509-104.998-59.187-64.742-100.006-108.326-111.526-120.256-8.179-9.015-20.48-14.737-33.57-14.737-13.094 0-25.391 5.747-33.573 14.737-22.118 22.067-80.969 95.484-80.969 95.484-5.728 5.722-9.001 13.077-9.001 21.278 0 8.196 4.091 15.552 9.001 21.274 4.909 4.902 12.273 7.356 19.663 7.356s13.935-2.453 18.845-7.356c10.662-8.99 77.695-88.947 77.695-88.947s186.577 204.821 198.033 216.263c4.911 4.904 12.275 8.172 20.48 8.172 8.209 0 15.573-3.269 20.484-8.172 4.907-4.904 8.998-12.259 8.998-20.457zM863.369 448.004c0 194.056-157.312 351.371-351.373 351.371-194.056 0-351.371-157.315-351.371-351.371 0-194.061 157.315-351.373 351.371-351.373 194.061 0 351.373 157.312 351.373 351.373zM811.409 448.61c0-166.336-133.077-301.786-299.413-301.786-166.333 0-299.408 135.45-299.408 301.786s133.074 300.569 299.408 300.569c166.336 0 299.413-134.233 299.413-300.569z" />
<glyph unicode="&#xe91f;" glyph-name="cds-ico-check-circle-solid" d="M862.347 502.161c4.714-21.991 6.283-44.769 6.283-67.547v-2.351c0-21.991-2.355-43.983-6.283-65.192-3.928-21.991-10.211-43.201-18.874-62.837-8.643-20.423-19.661-40.063-31.445-58.106-11.78-18.043-25.944-34.546-40.89-50.258-15.737-14.934-31.445-28.271-49.533-40.849-18.092-12.575-36.942-22.774-57.389-32.19-20.447-8.63-41.677-15.712-63.697-20.423-22.016-4.706-44.818-7.057-68.407-7.057-22.802 0-45.605 1.569-66.839 6.275-22.016 4.706-43.25 10.981-63.695 19.636s-39.322 19.64-57.387 32.19c-18.090 11.772-34.585 25.915-50.319 40.845-15.734 14.934-29.087 31.408-40.893 49.476-11.806 18.072-22.803 37.708-32.228 58.106-8.64 19.64-14.948 40.845-19.661 62.837s-7.069 43.987-7.069 66.761v2.355c0 22.774 2.356 43.983 6.284 65.192 3.927 21.991 10.996 43.196 19.661 63.62s19.661 40.061 31.443 58.105c24.374 36.114 54.246 66.76 90.426 91.105 18.090 11.768 36.941 22.777 57.387 31.406 19.66 9.415 41.68 15.716 63.696 20.423s44.818 6.276 68.407 6.276c22.802 0 45.605-2.354 66.839-6.276 22.016-3.923 44.036-10.984 63.697-19.638 20.447-8.63 39.322-18.853 57.385-30.622 36.155-24.345 66.839-54.967 91.214-91.105 12.567-18.069 22.802-36.898 32.227-57.321 8.638-20.422 14.946-40.844 19.661-62.836zM724.746 537.489c4.71 4.706 8.638 10.985 8.638 18.853 0 7.87-3.928 14.931-8.638 19.638-4.714 4.707-11.784 7.845-19.661 7.845-7.881 0-14.95-3.138-19.661-7.845-10.998-10.984-226.435-247.375-226.435-247.375s-79.405 95.027-89.641 103.657c-4.712 4.706-10.996 7.062-18.090 7.062s-14.163-2.355-18.876-7.062c-4.713-5.493-8.64-12.554-8.64-20.423 0-7.873 3.142-14.93 8.64-20.423 0 0 71.551-88.752 92.781-109.937 7.856-8.63 19.661-14.143 32.231-14.143 12.567 0 24.371 5.489 32.227 14.143 21.23 21.991 224.076 245.023 235.074 256.008h0.049z" />
<glyph unicode="&#xe920;" glyph-name="cds-ico-close" d="M809.020 187.426c5.538-5.538 7.915-11.866 7.915-19.012s-2.377-13.478-7.125-18.223c-4.745-4.749-11.866-7.125-19.012-7.125s-13.478 2.377-19.017 7.915l-259.785 259.785-259.782-259.785c-5.539-5.538-11.869-7.915-19.015-7.915s-14.267 2.377-19.015 7.125c-4.748 4.745-7.121 11.076-7.121 18.223s2.374 13.474 7.913 19.012l259.785 259.785-259.785 259.784c-5.539 5.539-7.913 11.869-7.913 19.015s2.374 14.268 7.121 19.015c4.748 4.748 11.869 7.913 19.015 7.913s13.476-2.374 19.015-7.913l259.782-259.785 259.785 259.785c5.538 5.539 11.87 7.913 19.017 7.913s14.268-3.165 19.012-7.913c4.749-4.748 7.125-11.869 7.125-19.015s-2.377-13.476-7.915-19.015l-259.785-259.784 259.785-259.785z" />
<glyph unicode="&#xe921;" glyph-name="cds-ico-close-circle" d="M617.412 589.337c4.898 4.898 11.43 8.164 17.984 8.164 6.558 0 13.065-3.266 17.988-8.164s8.162-11.429 8.162-17.986c0-6.557-2.449-13.904-7.347-18.802l-103.782-103.782 102.967-102.967c5.713-5.713 8.977-13.901 8.977-20.433s-3.264-13.060-8.977-18.803c-4.898-4.898-11.43-7.347-18.803-8.162s-14.72 3.264-20.433 8.981l-102.967 102.148-103.781-103.782c-4.898-4.898-11.429-7.347-17.986-7.347s-13.904 3.264-18.802 8.162c-4.898 4.898-8.163 12.245-8.163 18.803s3.265 12.245 8.163 17.169l104.597 103.782-104.597 104.598c-5.714 5.714-8.98 11.429-8.163 18.802s2.449 15.537 7.347 20.435c5.715 5.714 13.904 7.347 20.435 7.347s13.062-1.633 18.802-7.347l104.597-104.599 103.782 103.782zM511.996 148.902c40.87 0 79.266 8.166 115.213 23.701s67.021 36.762 93.986 63.727c26.965 26.965 48.218 58.833 63.727 95.62s22.882 74.364 22.882 116.028c0 41.66-7.347 80.896-22.882 117.658s-36.762 67.836-63.727 94.801c-26.965 26.966-58.014 48.217-93.986 63.728s-74.368 22.884-115.213 22.884c-40.841 0-79.262-7.348-115.209-22.884-35.946-15.537-67.019-36.762-93.985-63.728s-48.217-58.013-63.728-94.801c-15.511-36.788-22.884-75.998-22.884-117.684 0-41.69 7.347-79.266 22.884-116.028s36.762-68.655 63.728-95.62c26.966-26.965 58.014-48.218 93.985-63.727 35.973-15.509 74.368-23.701 115.209-23.701v0.026zM511.996 799.375c48.218 0 93.986-8.98 136.465-27.782 42.475-18.802 80.081-43.319 111.945-75.183s56.38-69.468 75.183-111.945c18.803-42.477 27.78-88.247 27.78-136.46 0-48.218-8.977-93.171-27.78-135.646-18.803-42.479-43.319-80.081-75.183-111.949-31.863-31.863-69.47-57.195-111.945-75.998-42.479-18.803-88.247-27.78-136.465-27.78-48.213 0-93.983 8.977-136.46 27.78s-80.081 44.134-111.945 75.998c-31.864 31.868-56.381 69.47-75.183 111.949-18.802 42.475-27.782 87.428-27.782 135.646 0 48.213 8.98 93.983 27.782 136.46s43.319 80.081 75.183 111.945c31.864 31.864 69.468 56.381 111.945 75.183s88.247 27.782 136.46 27.782z" />
<glyph unicode="&#xe922;" glyph-name="cds-ico-close-circle-solid" d="M511.996 799.375c48.218 0 93.986-8.98 136.465-27.782 42.475-18.802 80.081-43.319 111.945-75.183s56.38-69.468 75.183-111.945c18.803-42.477 27.78-88.247 27.78-136.46 0-48.218-8.977-93.171-27.78-135.646-18.803-42.479-43.319-80.081-75.183-111.949-31.863-31.863-69.47-57.195-111.945-75.998-42.479-18.803-88.247-27.78-136.465-27.78-48.213 0-93.983 8.977-136.46 27.78s-80.081 44.134-111.945 75.998c-31.864 31.868-56.381 69.47-75.183 111.949-18.802 42.475-27.782 87.428-27.782 135.646 0 48.213 8.98 93.983 27.782 136.46s43.319 80.081 75.183 111.945c31.864 31.864 69.468 56.381 111.945 75.183s88.247 27.782 136.46 27.782zM628.023 603.241l-114.394-114.396-104.597 101.334c-5.715 4.899-23.7 22.884-31.048 22.884s-15.537-2.449-22.068-8.98c-5.714-5.715-7.347-13.904-8.163-22.068s1.633-13.904 8.163-20.435l115.213-115.21-114.396-114.394c-5.715-5.717-8.98-11.43-8.98-18.803s3.265-14.72 8.98-20.433c5.715-5.717 12.246-8.981 19.619-8.981s15.537 2.449 21.251 8.162l113.578 114.394 113.579-113.574c6.532-6.532 13.905-10.615 22.067-9.801 8.162 0.819 14.72 4.083 20.433 9.801 6.532 6.528 9.801 13.060 9.801 20.433s-3.268 16.354-9.801 22.882l-112.759 112.764 113.579 114.394c5.713 5.715 8.162 13.062 8.162 20.435s-2.449 13.904-8.162 19.619c-5.717 5.715-13.065 9.797-20.437 9.797s-13.901-4.108-19.618-9.822z" />
<glyph unicode="&#xe923;" glyph-name="cds-ico-close-tag-solid" d="M512 192c141.385 0 256 114.615 256 256s-114.615 256-256 256c-141.385 0-256-114.615-256-256s114.615-256 256-256zM574.4 546.774c4.898 4.898 11.43 8.164 17.988 8.164 6.554 0 13.060-3.266 17.984-8.164s8.162-11.429 8.162-17.984c0-6.558-2.449-13.905-7.347-18.803l-61.116-61.116 60.301-60.297c5.713-5.717 8.981-13.905 8.981-20.437 0-6.528-3.268-13.060-8.981-18.799-4.898-4.902-11.43-7.351-18.803-8.166s-14.72 3.264-20.433 8.981l-60.301 59.482-61.116-61.116c-4.898-4.898-11.426-7.347-17.984-7.347-6.556 0-13.903 3.264-18.802 8.166-4.898 4.898-8.163 12.245-8.163 18.799 0 6.558 3.265 12.245 8.163 17.169l61.929 61.116-61.929 61.931c-5.714 5.717-8.98 11.43-8.163 18.803s2.449 15.537 7.347 20.435c5.715 5.715 13.904 7.348 20.433 7.348 6.532 0 13.065-1.633 18.803-7.348l61.931-61.932 61.116 61.116z" />
<glyph unicode="&#xe924;" glyph-name="cds-ico-cloud-download" d="M420.168 202.867c0 14.272-11.868 25.344-26.135 25.344l-98.618 0.030c-66.537 1.579-120.391 58.598-120.391 125.141 0 66.539 53.854 121.182 120.391 122.765 11.872 0 22.974-1.583 34.051-4.749 2.371-0.789 5.536-1.583 7.91-1.583 14.267 0 26.138 11.874 26.138 26.138 0 2.377 0 4.749-0.794 6.332-3.165 13.474-4.745 26.133-4.745 41.195 0 86.319 70.496 156.814 156.815 156.814 76.826 0 140.173-55.435 153.651-128.304 2.372-11.893 13.474-21.39 26.133-21.39h3.17c74.449-0.791 136.218-51.48 152.068-121.185 3.162-11.102 13.47-19.806 25.344-19.806 14.268 0 26.133 11.87 26.133 26.133 0 1.587-0.789 3.959-0.789 5.542-20.574 87.108-95.027 153.65-186.121 161.563-25.344 86.319-105.331 149.694-200.384 149.694-114.83 0-208.295-93.441-208.295-208.297v-15.853h-10.287c-95.046-1.579-172.664-79.198-172.664-175.036 0-95.842 77.618-174.251 172.664-175.834h98.618c14.267 0 26.135 11.081 26.135 25.344zM661.227 143.462c7.142 0 13.47 3.166 19.004 8.7l101.828 101.035c5.534 5.538 9.489 11.891 9.489 19.008 0 7.936-3.162 14.263-8.7 19.802-5.534 5.534-11.891 8.7-19.797 8.7-7.147 0-13.474-3.166-19.008-8.7l-57.481-59.853v181.406c0 7.142-1.583 13.47-6.332 18.219-4.745 4.745-11.861 7.117-19.008 7.117-7.142 0-12.676-2.372-17.425-7.117-4.745-4.749-7.91-11.102-7.91-18.219v-181.406l-55.898 59.853c-5.534 5.534-11.887 8.7-19.004 8.7-7.936 0-15.057-3.166-20.595-8.7-5.534-5.538-7.91-11.891-7.91-19.802 0-7.142 2.377-13.47 7.91-19.008l101.828-101.035c5.534-5.534 11.861-8.7 19.008-8.7z" />
<glyph unicode="&#xe925;" glyph-name="cds-ico-cloud-upload" d="M420.168 202.867c0 14.272-11.868 25.344-26.135 25.344l-98.618 0.030c-66.537 1.579-120.391 58.598-120.391 125.141 0 66.539 53.854 121.182 120.391 122.765 11.872 0 22.974-1.583 34.051-4.749 0.784-0.26 1.654-0.521 2.552-0.755 1.823-0.469 3.768-0.828 5.358-0.828 14.267 0 26.138 11.874 26.138 26.138 0 1.378 0 2.756-0.157 3.981-0.11 0.883-0.303 1.685-0.637 2.351-3.165 13.474-4.745 26.133-4.745 41.195 0 86.319 70.496 156.814 156.815 156.814 76.826 0 140.173-55.435 153.651-128.304 2.372-11.893 13.474-21.39 26.133-21.39h3.17c74.449-0.791 136.218-51.48 152.068-121.185 3.162-11.102 13.47-19.806 25.344-19.806 14.268 0 26.133 11.87 26.133 26.133 0 1.131-0.401 2.654-0.631 4.011-0.094 0.55-0.158 1.075-0.158 1.532-20.574 87.108-95.027 153.65-186.121 161.563-25.344 86.319-105.331 149.694-200.384 149.694-114.83 0-208.295-93.441-208.295-208.297v-15.853h-10.287c-95.046-1.579-172.664-79.198-172.664-175.036 0-95.842 77.618-174.251 172.664-175.834h98.618c14.267 0 26.135 11.081 26.135 25.344zM662.805 438.895c-7.147 0-13.474-3.162-19.012-8.704l-101.82-101.030c-5.542-5.538-9.498-11.891-9.498-19.008 0-7.936 3.166-14.263 8.704-19.797 5.538-5.538 11.887-8.704 19.797-8.704 7.147 0 13.474 3.166 19.008 8.704l57.485 59.853v-181.406c0-7.142 1.579-13.474 6.323-18.219s11.866-7.121 19.012-7.121c7.142 0 12.676 2.377 17.425 7.121 4.745 4.745 7.91 11.098 7.91 18.219v181.406l55.898-59.853c5.538-5.538 11.887-8.704 19.008-8.704 7.936 0 15.053 3.166 20.591 8.704 5.534 5.534 7.91 11.887 7.91 19.797 0 7.142-2.377 13.47-7.91 19.008l-101.824 101.030c-5.538 5.542-11.866 8.704-19.008 8.704z" />
<glyph unicode="&#xe926;" glyph-name="cds-ico-cog" d="M531.337 488.841c-14.934 0-28.353-5.964-38.81-16.425-10.461-10.457-15.679-24.621-15.679-40.301 0-15.675 5.218-29.094 15.679-39.555 10.457-10.461 23.876-15.679 38.81-15.679s28.353 5.218 38.81 15.679c10.461 10.461 15.679 23.88 15.679 39.555 0 15.679-5.218 29.843-15.679 40.301-10.457 10.461-23.876 16.425-38.81 16.425zM531.337 533.615c14.189 0 26.862-2.982 39.555-8.2 12.698-5.218 23.134-12.698 32.825-21.643s16.421-20.148 21.639-32.076c5.218-11.928 8.2-25.371 8.2-39.555 0-14.189-2.982-26.862-8.2-38.81-5.218-11.952-11.928-23.134-21.639-32.080-9.716-8.946-20.152-16.421-32.825-21.639s-25.367-7.455-39.555-7.455c-14.189 0-28.353 2.236-40.301 7.455-11.952 5.218-22.389 12.694-32.080 21.639s-16.421 20.152-21.639 32.080c-5.218 11.928-8.2 24.621-8.2 38.81 0 14.184 2.982 27.603 8.2 39.555s11.928 23.13 21.639 32.076c9.716 8.946 20.152 16.425 32.080 21.643s26.112 8.2 40.301 8.2zM517.894 721.655c-5.218 0-8.946-1.491-11.928-4.473s-5.214-6.709-5.214-11.927v-47.756c0-5.218-1.491-10.436-5.218-14.932s-8.2-7.454-13.443-8.945c-10.437-2.236-20.152-5.218-29.843-9.691-9.687-4.472-19.403-8.945-29.094-14.187-3.727-2.236-7.455-2.981-11.928-2.981-6.709 0-12.696 1.491-17.169 5.963l-33.568 34.314c-3.727 3.727-7.455 4.473-11.928 4.473s-8.2-0.745-11.95-4.473l-19.405-19.405c-3.727-3.727-5.218-7.454-5.218-11.95s1.491-8.2 5.218-11.95l33.568-34.314c4.473-4.472 6.709-9.691 6.709-16.423 0-4.472-0.745-8.199-2.982-11.927-11.182-18.661-19.405-39.555-24.623-59.707-1.491-5.218-4.473-9.691-8.945-13.439-4.473-3.752-8.946-4.473-14.187-4.473h-47.756c-5.218 0-9.691-2.236-12.696-5.218s-4.473-7.455-4.473-12.698v-26.862c0-5.214 1.491-8.942 4.473-11.923s7.454-4.473 12.696-4.473h47.756c5.218 0 9.691-2.236 14.187-5.964s7.454-8.2 8.945-13.443c5.218-20.152 13.441-39.555 24.623-58.192 2.236-3.727 2.982-7.455 2.982-11.928 0-6.709-2.236-13.443-6.709-17.912l-33.568-32.825c-3.727-3.727-5.218-7.455-5.218-11.928s1.491-8.2 5.218-11.928l19.405-19.403c3.727-3.727 7.455-5.964 11.95-5.964s8.2 2.236 11.928 5.964l33.568 32.821c4.473 4.473 10.437 7.455 17.169 7.455 4.473 0 8.2-0.745 11.928-2.982 9.691-5.218 19.407-10.437 29.094-14.934 9.691-4.493 19.407-8.196 29.843-10.433 5.218-1.491 9.691-3.727 13.443-8.2 3.748-4.473 5.218-8.946 5.218-14.189v-47.755c0-5.218 2.232-9.691 5.214-12.698 2.982-3.002 6.709-5.218 11.928-5.218h26.862c5.218 0 8.946 2.236 11.928 5.218s5.218 7.455 5.218 12.698v47.755c0 5.218 1.491 9.691 5.218 14.189 3.727 4.493 8.2 6.709 13.439 8.2 10.437 2.236 20.152 5.964 29.843 10.433 9.691 4.473 19.403 9.691 29.094 14.934 3.727 2.236 7.455 2.982 11.928 2.982 6.709 0 12.698-2.982 17.17-7.455l33.567-32.821c3.727-3.727 7.455-5.964 11.928-5.964s8.2 2.236 11.928 5.964l19.407 19.403c3.727 3.727 5.218 7.455 5.218 11.928s-1.491 8.2-5.218 11.928l-33.571 32.825c-4.473 4.469-6.709 11.178-6.709 17.912 0 4.473 0.745 8.2 2.982 11.928 11.182 18.661 19.407 38.064 24.625 58.192 1.491 5.218 4.473 9.691 8.946 13.443 4.473 3.748 8.946 5.964 14.184 5.964h47.755c5.218 0 9.691 1.491 12.698 4.473s4.473 6.709 4.473 11.923v26.862c0 5.218-1.491 9.691-4.473 12.698-2.982 3.002-7.455 5.218-12.698 5.218h-47.755c-5.218 0-9.691 0.745-14.184 4.473-4.497 3.727-7.455 8.196-8.946 13.439-5.218 20.152-13.443 41.046-24.625 59.707-2.236 3.727-2.982 7.455-2.982 11.927 0 6.709 2.236 11.95 6.709 16.423l33.571 34.314c3.727 3.727 5.218 7.455 5.218 11.95s-1.491 8.2-5.218 11.95l-19.407 19.405c-3.727 3.727-7.455 4.473-11.928 4.473s-8.2-0.745-11.928-4.473l-33.567-34.314c-4.473-4.473-10.437-5.963-17.17-5.963-4.473 0-8.2 0.745-11.928 2.981-9.691 5.218-19.403 9.691-29.094 14.187s-19.407 7.455-29.843 9.691c-5.218 1.491-9.691 4.472-13.439 8.945-3.752 4.473-5.218 9.691-5.218 14.932v47.756c0 5.218-2.236 8.945-5.218 11.927s-6.709 4.473-11.928 4.473h-26.862zM544.756 769.41c17.912 0 33.567-5.963 46.264-18.659s18.661-27.605 18.661-45.519v-29.841c13.439-4.473 26.112-8.946 38.064-14.932l20.894 20.896c12.698 12.696 27.607 17.914 45.519 17.914 18.661 0 33.571-5.218 46.264-17.914l19.407-19.405c6.709-6.709 11.182-14.187 14.189-21.642 3.002-7.454 4.473-16.423 4.473-24.623 0-18.66-5.964-33.569-18.661-46.265l-20.898-20.895c5.964-11.928 11.182-23.88 15.679-37.319h29.098c17.912 0 32.821-6.709 45.519-19.407 12.694-12.698 19.403-28.348 19.403-46.264v-26.862c0-17.912-6.709-32.821-19.403-45.519-12.698-12.694-27.607-18.657-45.519-18.657h-29.098c-4.473-13.443-9.691-26.862-15.679-38.81l20.898-20.898c12.698-12.694 18.661-27.603 18.661-46.264 0-8.2-1.491-16.425-4.473-23.876-2.982-7.455-7.455-14.189-14.189-20.898l-19.407-19.407c-12.694-12.694-27.603-19.403-46.264-19.403-17.912 0-32.821 6.709-45.519 19.403l-20.894 20.898c-11.928-5.964-24.625-11.928-38.064-16.425v-28.348c0-17.916-5.964-33.571-18.661-46.264-12.698-12.698-28.353-19.407-46.264-19.407h-26.862c-17.912 0-33.567 6.709-46.264 19.407-12.694 12.694-18.657 28.348-18.657 46.264v28.348c-13.443 4.473-26.116 10.437-38.064 16.425l-20.897-20.898c-12.696-12.694-27.605-19.403-45.519-19.403-18.66 0-33.569 6.709-46.265 19.403l-19.405 19.407c-6.709 6.709-11.182 13.443-14.187 20.898-3.005 7.451-4.472 15.675-4.472 23.876 0 18.661 5.963 33.571 18.659 46.264l20.896 20.898c-5.964 11.928-11.182 25.367-15.678 38.81h-29.096c-17.914 0-32.823 5.964-45.519 18.657-12.696 12.698-19.405 27.607-19.405 45.519v26.862c0 17.916 6.709 33.567 19.405 46.264s27.605 19.407 45.519 19.407h29.096c4.473 13.439 9.691 25.367 15.678 37.319l-20.896 20.895c-12.696 12.696-18.659 27.605-18.659 46.265 0 8.2 1.491 17.169 4.472 24.623s7.455 14.932 14.187 21.642l19.405 19.405c12.696 12.696 27.605 17.914 46.265 17.914 17.914 0 32.823-5.218 45.519-17.914l20.897-20.896c11.928 5.964 24.621 10.436 38.064 14.932v29.841c0 17.914 5.964 32.823 18.657 45.519 12.698 12.696 28.353 18.659 46.264 18.659h26.862z" />
<glyph unicode="&#xe927;" glyph-name="cds-ico-dashboard" d="M583.791 692.517v-104.922h145.228v104.922h-145.228zM747.274 741.18c8.356 0 15.974-3.038 22.811-9.875s10.637-15.216 10.637-23.572v-135.354c0-8.356-3.801-15.976-10.637-22.81-6.836-6.84-14.455-10.637-22.811-10.637h-181.715c-8.356 0-16.736 3.797-23.572 10.637-6.836 6.835-9.875 14.454-9.875 22.81v135.354c0 8.356 3.039 16.735 9.875 23.572s15.217 9.875 23.572 9.875h181.715zM272.798 313.848v-104.923h145.228v104.923h-145.228zM436.281 362.512c8.356 0 16.736-3.039 23.572-9.875s9.875-15.217 9.875-23.572v-135.356c0-8.356-3.039-15.974-9.875-22.811s-15.217-10.633-23.572-10.633h-181.715c-8.356 0-15.976 3.797-22.812 10.633s-10.634 14.455-10.634 22.811v135.356c0 8.356 3.798 16.736 10.634 23.572s14.456 9.875 22.812 9.875h181.715zM583.791 426.39v-217.465h145.228v217.465h-145.228zM272.798 692.517v-217.463h145.228v217.463h-145.228zM747.274 475.054c8.356 0 15.974-3.039 22.811-9.875s10.637-15.217 10.637-23.572v-247.874c0-8.356-3.801-15.974-10.637-22.811s-14.455-10.637-22.811-10.637h-181.715c-8.356 0-16.736 3.801-23.572 10.637s-9.875 14.455-9.875 22.811v247.874c0 8.356 3.039 16.736 9.875 23.572s15.217 9.875 23.572 9.875h181.715zM436.281 741.18c8.356 0 16.736-3.038 23.572-9.875s9.875-15.216 9.875-23.572v-247.871c0-8.356-3.039-15.978-9.875-22.815s-15.217-10.633-23.572-10.633h-181.715c-8.356 0-15.976 3.797-22.812 10.633s-10.634 14.459-10.634 22.815v247.871c0 8.356 3.798 16.735 10.634 23.572s14.456 9.875 22.812 9.875h181.715z" />
<glyph unicode="&#xe928;" glyph-name="cds-ico-database" d="M800.989 659.205l0.758-454.704c-5.317-10.633-36.508-114.819-299.573-114.819s-297.295 103.404-300.334 114.819l0.76 454.704c0 74.514 134.595 134.595 299.574 134.595s298.815-60.057 298.815-134.595zM754.606 425.767c-41.071-28.131-117.101-56.263-252.432-56.263s-212.147 28.131-253.19 56.263v-79.831c15.216-37.27 113.302-67.678 253.19-67.678 139.153 0 237.236 29.647 252.432 66.159v81.351zM248.2 285.118v-70.717c6.077-11.395 50.182-76.034 253.949-76.034 203.768 0 246.354 64.639 252.432 76.034v70.717c-41.066-28.131-117.862-55.501-252.432-55.501s-212.906 27.369-253.949 55.501zM754.606 565.677c-41.071-28.131-117.101-56.258-252.432-56.258s-212.147 28.127-253.19 56.258v-79.072c15.216-38.027 113.302-68.436 253.19-68.436 139.153 0 237.236 30.409 252.432 68.436v79.072zM248.2 651.609c0-50.942 114.061-93.528 253.949-93.528 139.891 0 253.952 42.586 253.952 93.528s-114.061 93.528-253.952 93.528c-139.887 0-253.949-42.586-253.949-93.528z" />
<glyph unicode="&#xe929;" glyph-name="cds-ico-delete" d="M567.919 575.221c7.594 0 13.697-2.279 18.252-6.837 4.559-4.558 7.598-11.394 7.598-19.016v-293.495c0-7.598-3.039-14.459-7.598-19.014-4.555-4.559-10.633-6.836-18.252-6.836-6.836 0-12.939 2.277-18.256 6.836-5.317 4.555-7.598 11.395-7.598 19.014v293.495c0 7.598 2.281 14.458 7.598 19.016s11.395 6.837 18.256 6.837zM434.106 575.221c7.594 0 13.697-2.279 18.256-6.837 4.555-4.558 7.594-11.394 7.594-19.016v-293.495c0-7.598-3.039-14.459-7.594-19.014-4.559-4.559-10.637-6.836-18.256-6.836-6.836 0-12.939 2.277-18.256 6.836-5.317 4.555-7.595 11.395-7.595 19.014v293.495c0 7.598 2.279 14.458 7.595 19.016s11.395 6.837 18.256 6.837zM634.077 147.886c11.391 0 22.049 3.801 29.647 12.157s11.395 18.252 11.395 30.409v466.855h-348.238v-466.855c0-12.157 3.798-22.053 11.394-30.409s18.255-12.157 29.649-12.157h266.153zM742.818 705.993c6.836 0 12.939-1.519 17.498-6.077 4.555-4.558 6.836-11.394 6.836-18.255s-2.281-12.177-6.836-16.735c-4.559-4.558-10.637-7.596-17.498-7.596h-15.974v-466.858c0-12.153-2.277-23.568-6.836-34.963s-11.395-21.295-19.775-29.651c-8.376-8.356-19.014-15.217-30.409-19.771-11.391-4.559-22.811-6.836-35.725-6.836h-266.126c-12.938 0-25.091 2.277-36.486 6.836-11.394 4.555-21.293 11.395-29.649 19.771-8.356 8.38-15.216 18.256-19.774 29.651s-6.837 22.811-6.837 34.963v466.858h-15.976c-6.837 0-12.937 3.038-17.495 7.596s-6.837 9.875-6.837 16.735c0 6.86 2.279 13.697 6.837 18.255s10.634 6.077 17.495 6.077h215.946v69.956c0 7.596 2.277 13.697 7.594 18.255s11.395 7.596 18.256 7.596c7.598 0 13.697-3.039 18.256-7.596 4.555-4.558 7.594-10.634 7.594-18.255v-69.956h215.921z" />
<glyph unicode="&#xe92a;" glyph-name="cds-ico-device" d="M365.586 112.194h330.005v51.7h-330.005v-51.7zM695.57 814.008h-330.008v-51.702h330.008v51.702zM365.586 264.258v-53.981h330.005v53.981h-330.005zM695.57 661.918v53.98h-330.008v-53.98h330.008zM365.586 614.774v-304.154h330.005v304.154h-330.005zM721.42 864.19c14.455 0 25.85-10.635 25.85-25.091v-752.755c0-14.459-11.395-25.092-25.85-25.092h-380.949c-14.456 0-25.091 10.633-25.091 25.092v752.755c0 14.456 10.634 25.091 25.091 25.091h380.949z" />
<glyph unicode="&#xe92b;" glyph-name="cds-ico-diagnostics" d="M877.504 474.534c15.057 0 26.927-11.87 26.927-26.927 0-15.061-11.87-25.348-26.927-25.348h-156.028c-11.081 0-21.393 7.121-24.555 17.434l-80.785 239.186-183.748-552.85c-3.166-10.287-13.475-17.434-24.553-17.434s-22.18 7.125-25.345 17.434l-99.008 296.23h-137.013c-15.059 0-26.928 10.287-26.928 25.348 0 15.057 11.869 26.927 26.928 26.927h156.028c11.078 0 21.389-7.915 24.554-18.223l80.783-239.979 183.747 553.641v0.791c3.166 10.287 13.478 16.641 24.555 16.641s22.182-7.121 25.344-17.432l99.008-295.439h137.015z" />
<glyph unicode="&#xe92c;" glyph-name="cds-ico-download" d="M348.5 427.098c-5.317 5.321-8.355 11.395-8.355 18.256 0 7.598 3.038 13.697 8.355 19.014s11.394 8.356 19.014 8.356c6.837 0 12.937-3.039 18.255-8.356l101.122-104.161v362.693c0 7.596 2.281 13.697 7.598 18.255s11.395 7.596 18.256 7.596c7.594 0 13.697-3.038 18.252-7.596 4.559-4.558 7.598-10.635 7.598-18.255v-362.693l101.122 104.161c5.321 5.317 11.395 8.356 18.256 8.356 7.598 0 13.697-3.039 19.014-8.356s8.356-11.395 8.356-19.014c0-6.836-3.039-12.935-8.356-18.256l-145.99-144.47c-5.317-5.317-11.391-9.875-18.252-9.875s-12.939 4.559-18.256 9.875l-145.989 144.47zM767.455 160.211c6.836 0 12.935-1.52 17.494-6.074 4.555-4.559 6.836-11.395 6.836-18.256s-2.281-12.935-6.836-17.494c-4.559-4.559-10.637-7.598-17.494-7.598h-509.444c-6.837 0-13.697 3.039-18.255 7.598s-6.837 10.633-6.837 17.494c0 6.861 2.279 13.697 6.837 18.256 4.558 4.555 11.394 6.074 18.255 6.074h509.444z" />
<glyph unicode="&#xe92d;" glyph-name="cds-ico-duplicate" d="M693.785 281.014v415.153h-267.649v-415.153h267.649zM575.926 163.914v68.436h-165.765c-19.773 0-35.725 15.217-35.725 34.968v311.751h-66.158v-415.154h267.649zM709.734 746.35c19.775 0 35.725-16.735 35.725-36.509v-442.524c0-19.775-15.974-34.968-35.725-34.968h-82.108v-82.108c0-19.775-15.974-36.512-35.725-36.512h-299.575c-19.774 0-35.726 16.736-35.726 36.512v442.524c0 19.774 15.976 34.966 35.726 34.966h82.11v82.11c0 19.774 15.976 36.509 35.725 36.509h299.573z" />
<glyph unicode="&#xe92e;" glyph-name="cds-ico-edit" d="M769.38 177.299l-37.265 133.812-96.567-95.81 133.833-38.003zM599.822 248.775l98.083 98.845-345.197 345.199-98.086-98.845 345.2-345.198zM352.708 750.62c9.875 0 18.255-3.798 24.331-10.634l383.985-384.748c3.801-3.797 7.598-8.356 11.395-15.217 3.797-6.857 6.836-11.391 8.356-16.732l45.625-162.726c0.758-3.797 1.52-6.836 1.52-9.114 0-9.118-3.797-16.736-9.875-22.815-6.078-6.074-13.697-9.114-22.811-9.114-2.281 0-3.801-0.762-6.078 0-2.277 0.758-3.797 0.758-5.317 1.52l-159.687 45.621c-5.317 1.52-10.633 3.801-17.494 7.598s-11.395 8.356-15.217 12.153l-384.747 384.747c-6.837 6.837-9.875 13.697-9.875 22.812 0 9.875 3.798 18.255 10.634 24.332l121.657 121.657c6.837 6.837 14.457 10.634 23.572 10.634l0.024 0.024z" />
<glyph unicode="&#xe92f;" glyph-name="cds-ico-edit-left" d="M244.269 179.665l38.822 139.388 100.59-99.797-139.412-39.59zM420.895 254.118l-102.173 102.963 359.584 359.583 102.17-102.964-359.581-359.582zM678.306 776.875c-10.287 0-19.017-3.956-25.348-11.078l-399.985-400.775c-3.956-3.959-7.913-8.704-11.869-15.851s-7.121-11.87-8.704-17.434l-47.526-169.506c-0.791-3.955-1.583-7.121-1.583-9.493 0-9.498 3.956-17.434 10.287-23.765 6.33-6.327 14.267-9.493 23.763-9.493 2.374 0 3.956-0.789 6.33 0s3.956 0.789 5.539 1.583l166.339 47.526c5.539 1.583 11.078 3.955 18.224 7.91 7.146 3.959 11.869 8.704 15.85 12.659l400.777 400.78c7.121 7.121 10.287 14.268 10.287 23.763 0 10.287-3.955 19.015-11.076 25.345l-126.729 126.726c-7.121 7.121-15.083 11.103-24.576 11.103z" />
<glyph unicode="&#xe930;" glyph-name="cds-ico-elements" d="M754.397 484.205h-161.571c-23.032 0-43.758 11.694-55.628 31.183-11.514 19.132-12.222 42.517-1.95 62.36l80.257 153.068c11.162 21.258 33.128 34.546 57.401 34.546 24.093 0 46.060-13.11 57.397-34.193l81.318-153.243c10.453-19.842 9.921-43.228-1.593-62.537-11.87-19.665-32.6-31.359-55.632-31.359v0.176zM673.083 715.224c-2.658 0-9.392-0.709-12.935-7.619l-80.253-153.245c-3.011-5.668-1.065-10.629 0.356-12.931 1.237-2.126 4.956-6.91 12.575-6.91h161.571c7.623 0 11.342 4.96 12.579 6.91 1.421 2.302 3.367 7.262 0.356 13.108l-81.318 153.245c-3.719 6.91-10.273 7.619-12.931 7.619v-0.177zM422.752 484.205h-151.47c-32.067 0-58.287 26.042-58.287 58.286v158.028c0.177 32.067 26.22 58.11 58.287 58.11h151.47c32.068 0 58.29-26.042 58.29-58.287v-158.027c0-32.068-26.223-58.286-58.29-58.286v0.176zM271.282 708.492c-4.429 0-7.974-3.545-7.974-7.974v-158.028c0-4.428 3.545-7.971 7.974-7.971h151.47c4.432 0 7.975 3.543 7.975 7.971v158.028c0 4.429-3.543 7.974-7.975 7.974h-151.47zM203.96 295.883c0-79.016 64.31-143.147 143.146-143.147 79.013 0 143.149 64.131 143.149 143.147 0 79.012-64.135 143.147-143.149 143.147s-143.146-64.135-143.146-143.147zM254.273 295.883c0 51.2 41.633 92.832 92.833 92.832s92.833-41.456 92.833-92.832c0-51.376-41.634-93.008-92.833-93.008s-92.833 41.808-92.833 93.008zM786.821 155.214c-6.377 0-12.931 2.482-17.715 7.442l-97.796 97.796-97.792-97.796c-4.96-4.96-11.338-7.442-17.715-7.442s-12.931 2.482-17.715 7.442c-9.744 9.744-9.744 25.69 0 35.434l97.792 97.792-97.792 97.792c-9.744 9.744-9.744 25.69 0 35.434 9.744 9.74 25.69 9.74 35.43 0l97.792-97.796 97.796 97.796c9.74 9.74 25.686 9.74 35.43 0 9.744-9.744 9.744-25.69 0-35.434l-97.792-97.792 97.792-97.792c9.744-9.744 9.744-25.69 0-35.434-4.96-4.96-11.338-7.442-17.715-7.442z" />
<glyph unicode="&#xe931;" glyph-name="cds-ico-email" d="M538.159 407.595c-7.121-5.538-15.851-9.498-26.138-9.498-8.704 0-17.429 3.959-26.133 9.498l-279.591 198.014v-367.495h611.452v367.52l-279.59-198.039zM512.021 453.538l288.294 204.344h-575.82l287.525-204.344zM836.74 708.573c8.704 0 16.64-3.956 23.761-11.078s11.081-15.059 11.081-23.763v-451.469c0-8.704-3.959-17.434-11.081-24.555s-15.057-10.287-23.761-10.287h-649.483c-8.704 0-16.641 3.166-23.763 10.287s-11.078 15.851-11.078 24.555v451.469c0 8.704 3.956 16.641 11.078 23.763s15.059 11.078 23.763 11.078h649.483z" />
<glyph unicode="&#xe932;" glyph-name="cds-ico-ethernet" d="M289.048 447.996c0 26.927 22.18 49.109 49.108 49.109s49.108-22.182 49.108-49.109c0-26.927-22.18-49.109-49.108-49.109s-49.108 22.182-49.108 49.109zM637.551 447.996c0 26.927 22.182 49.109 49.109 49.109s49.109-22.182 49.109-49.109c0-26.927-22.182-49.109-49.109-49.109s-49.109 22.182-49.109 49.109zM463.3 447.996c0 26.927 22.178 49.109 49.109 49.109 26.927 0 49.105-22.182 49.105-49.109s-22.178-49.109-49.105-49.109c-26.931 0-49.109 22.182-49.109 49.109zM237.566 661.044c15.059 0 26.928-12.685 26.928-26.928 0-6.33-1.583-11.078-4.748-15.85l-125.935-170.297 125.935-171.085c3.165-4.749 4.748-9.498 4.748-15.851 0-15.061-11.869-26.927-26.928-26.927-8.704 0-16.641 4.745-21.389 11.076l-137.013 186.914c-3.165 4.745-5.539 9.493-5.539 15.846 0 6.357 2.374 11.081 5.539 15.851l137.013 186.914c4.748 6.33 12.685 10.287 21.389 10.287v0.049zM944.862 463.846c3.166-4.749 5.538-10.287 5.538-15.851s-2.372-11.076-5.538-15.851l-137.015-186.91c-4.745-6.332-13.474-11.081-22.178-11.081-15.061 0-26.927 11.87-26.927 26.927 0 6.332 2.372 11.081 5.538 15.851l125.935 171.089-125.935 170.295c-3.166 4.748-5.538 10.287-5.538 16.641 0 15.059 11.866 26.928 26.927 26.928 8.704 0 17.434-4.748 22.178-11.078l137.015-186.961z" />
<glyph unicode="&#xe933;" glyph-name="cds-ico-export" d="M835.563 467.025c5.538-5.538 8.704-11.87 8.704-19.017 0-7.142-3.166-13.474-8.704-19.012l-151.279-152.073c-5.538-5.538-11.87-7.915-19.017-7.915-7.915 0-14.268 2.377-19.806 7.915s-8.704 12.659-8.704 20.599c0 7.121 3.166 13.474 8.704 19.012l110.084 106.129h-357.208c-7.121 0-13.476 3.166-18.224 7.915-4.748 4.745-7.121 10.287-7.121 17.429 0 7.147 2.374 14.268 7.121 19.017s11.078 6.332 18.224 6.332h357.208l-110.084 107.71c-5.538 5.539-8.704 11.869-8.704 19.015 0 7.913 3.166 14.267 8.704 19.806s11.87 8.704 19.806 8.704c7.121 0 13.478-3.956 19.017-9.495l151.279-152.073zM430.831 196.139c7.121 0 13.474-1.583 18.223-6.327 4.749-4.749 7.121-11.87 7.121-19.017s-2.372-12.659-7.121-17.434c-4.749-4.77-11.081-7.91-18.223-7.91h-216.24c-8.704 0-16.642 3.955-23.763 11.076s-11.078 15.057-11.078 23.761v535.418c0 8.704 3.956 17.432 11.078 24.554s15.059 10.287 23.763 10.287h216.24c7.121 0 13.474-1.583 18.223-6.33s7.121-11.869 7.121-19.015c0-7.146-2.372-12.685-7.121-17.433s-11.081-7.913-18.223-7.913h-197.225v-503.743l197.225 0.026z" />
<glyph unicode="&#xe934;" glyph-name="cds-ico-face-happy" d="M511.983 270.558c-56.23 0-107.711 19.017-154.445 55.441-6.33 4.745-9.495 10.283-9.495 19.012 0 7.121 2.374 13.478 7.121 19.017s11.869 7.91 19.015 7.91c5.539 0 11.078-2.372 15.059-6.327 37.214-29.303 77.616-44.361 122.77-44.361 45.15 0 85.53 15.057 122.769 44.361 3.955 3.955 9.498 6.327 15.061 6.327 7.121 0 14.268-2.372 19.012-7.91 4.749-5.538 7.121-11.87 7.121-19.017 0-8.704-3.162-14.268-9.493-19.012-46.733-36.425-98.214-55.441-154.445-55.441h-0.051zM617.323 508.16c-10.287 0-19.81 3.166-27.721 11.081-7.915 7.91-11.076 16.64-11.076 26.927s3.162 19.807 11.076 27.719c7.91 7.913 17.434 11.869 27.721 11.869s19.806-3.956 27.716-11.869c7.915-7.913 11.081-17.433 11.081-27.719s-3.166-19.017-11.081-26.927c-7.91-7.915-17.429-11.081-27.716-11.081zM406.621 508.16c-10.287 0-19.806 3.166-27.719 11.081-7.913 7.91-11.078 16.64-11.078 26.927s3.165 19.807 11.078 27.719c7.913 7.913 17.432 11.869 27.719 11.869s19.807-3.956 27.721-11.869c7.91-7.913 11.076-17.433 11.076-27.719s-3.166-19.017-11.076-26.927c-7.915-7.915-17.435-11.081-27.721-11.081zM511.983 737.852c-39.612 0-76.826-7.121-111.667-22.18s-64.958-35.632-91.095-61.769c-26.137-26.137-46.735-56.23-61.769-91.886s-22.18-73.664-22.18-114.065c0-40.405 7.121-76.83 22.18-112.461s35.632-66.539 61.769-92.676c26.136-26.138 56.23-46.737 91.095-61.769 34.867-15.036 72.081-22.972 111.667-22.972 39.59 0 76.826 7.91 111.667 22.972 34.842 15.057 64.96 35.631 91.098 61.769 26.133 26.138 46.733 57.020 61.769 92.676 15.031 35.657 22.178 72.081 22.178 112.461s-7.121 78.409-22.178 114.040c-15.061 35.632-35.635 65.749-61.769 91.886-26.138 26.137-56.23 46.734-91.098 61.769-34.863 15.034-72.077 22.18-111.667 22.18v0.024zM511.983 788.568c46.733 0 91.093-8.704 132.267-26.928 41.169-18.224 77.619-41.987 108.501-72.871 30.886-30.884 54.647-67.332 72.87-108.503s26.927-85.529 26.927-132.266c0-46.733-8.704-90.304-26.927-131.473s-41.984-77.619-72.87-108.501c-30.882-30.886-67.332-55.441-108.501-73.664-41.173-18.223-85.534-26.927-132.267-26.927s-91.094 8.704-132.265 26.927c-41.171 18.223-77.618 42.778-108.503 73.664-30.884 30.882-54.647 67.332-72.871 108.501s-26.928 84.74-26.928 131.473c0 46.737 8.704 91.096 26.928 132.266s41.987 77.619 72.871 108.503c30.884 30.884 67.332 54.647 108.503 72.871s85.532 26.928 132.265 26.928z" />
<glyph unicode="&#xe935;" glyph-name="cds-ico-face-sad" d="M511.983 390.955c56.23 0 107.712-19.012 154.445-55.437 6.332-4.749 9.498-10.287 9.498-19.017 0-7.121-2.377-13.474-7.121-19.017-4.749-5.538-11.87-7.91-19.017-7.91-5.538 0-11.076 2.372-15.057 6.332-37.218 29.299-77.619 44.361-122.773 44.361-45.15 0-85.53-15.061-122.769-44.361-3.956-3.959-9.495-6.332-15.059-6.332-7.121 0-14.267 2.372-19.015 7.91-4.748 5.542-7.121 11.87-7.121 19.017 0 8.704 3.165 14.268 9.495 19.017 46.735 36.425 98.217 55.437 154.448 55.437h0.047zM617.323 508.16c-10.287 0-19.81 3.166-27.721 11.081-7.915 7.91-11.076 16.64-11.076 26.927s3.162 19.807 11.076 27.719c7.91 7.913 17.434 11.869 27.721 11.869s19.806-3.956 27.716-11.869c7.915-7.913 11.081-17.433 11.081-27.719s-3.166-19.017-11.081-26.927c-7.91-7.915-17.429-11.081-27.716-11.081zM406.621 508.16c-10.287 0-19.806 3.166-27.719 11.081-7.913 7.91-11.078 16.64-11.078 26.927s3.165 19.807 11.078 27.719c7.913 7.913 17.432 11.869 27.719 11.869s19.807-3.956 27.721-11.869c7.91-7.913 11.076-17.433 11.076-27.719s-3.166-19.017-11.076-26.927c-7.915-7.915-17.435-11.081-27.721-11.081zM511.983 737.852c-39.612 0-76.826-7.121-111.667-22.18s-64.958-35.632-91.095-61.769c-26.137-26.137-46.735-56.23-61.769-91.886s-22.18-73.664-22.18-114.065c0-40.405 7.121-76.83 22.18-112.461s35.632-66.539 61.769-92.676c26.136-26.138 56.23-46.737 91.095-61.769 34.867-15.036 72.081-22.972 111.667-22.972 39.59 0 76.826 7.91 111.667 22.972 34.842 15.057 64.96 35.631 91.098 61.769 26.133 26.138 46.733 57.020 61.769 92.676 15.031 35.657 22.178 72.081 22.178 112.461s-7.121 78.409-22.178 114.040c-15.061 35.632-35.635 65.749-61.769 91.886-26.138 26.137-56.23 46.734-91.098 61.769-34.863 15.034-72.077 22.18-111.667 22.18v0.024zM511.983 788.568c46.733 0 91.093-8.704 132.267-26.928 41.169-18.224 77.619-41.987 108.501-72.871 30.886-30.884 54.647-67.332 72.87-108.503s26.927-85.529 26.927-132.266c0-46.733-8.704-90.304-26.927-131.473s-41.984-77.619-72.87-108.501c-30.882-30.886-67.332-55.441-108.501-73.664-41.173-18.223-85.534-26.927-132.267-26.927s-91.094 8.704-132.265 26.927c-41.171 18.223-77.618 42.778-108.503 73.664-30.884 30.882-54.647 67.332-72.871 108.501s-26.928 84.74-26.928 131.473c0 46.737 8.704 91.096 26.928 132.266s41.987 77.619 72.871 108.503c30.884 30.884 67.332 54.647 108.503 72.871s85.532 26.928 132.265 26.928z" />
<glyph unicode="&#xe936;" glyph-name="cds-ico-filters" d="M262.178 607.701v120.898c0 13.697 11.394 25.091 25.851 25.091s25.851-11.394 25.851-25.091v-120.898h-51.701zM356.465 556c13.697 0 24.331-11.395 24.331-25.093s-10.634-25.088-24.331-25.088h-42.586v-329.249c0-13.697-11.394-25.092-25.851-25.092s-25.851 11.395-25.851 25.092v329.249h-42.586c-13.697 0-24.331 11.391-24.331 25.088s10.634 25.093 24.331 25.093h136.874zM687.968 607.701v120.898c0 13.697 11.391 25.091 25.85 25.091 14.455 0 25.85-11.394 25.85-25.091v-120.898h-51.7zM782.254 556c13.697 0 24.33-11.395 24.33-25.093s-10.633-25.088-24.33-25.088h-42.586v-329.249c0-13.697-11.395-25.092-25.85-25.092-14.459 0-25.85 11.395-25.85 25.092v329.249h-42.586c-13.697 0-24.334 11.391-24.334 25.088s10.637 25.093 24.334 25.093h136.872zM526.787 350.712v-174.117c0-13.697-11.395-25.092-25.85-25.092-14.459 0-25.854 11.395-25.854 25.092v174.117h51.704zM432.497 402.416c-13.697 0-24.33 11.391-24.33 25.088s10.633 25.092 24.33 25.092h42.586v276.003c0 13.697 11.395 25.091 25.854 25.091 14.455 0 25.85-11.394 25.85-25.091v-276.003h42.586c13.697 0 24.33-11.395 24.33-25.092s-10.633-25.088-24.33-25.088h-136.876z" />
<glyph unicode="&#xe937;" glyph-name="cds-ico-floppydisk" d="M397.928 699.861v-142.577h228.108v142.577h-228.108zM679.893 699.861v-158.402c0-8.702-3.959-17.432-11.081-24.553s-15.057-10.287-23.761-10.287h-266.115c-8.704 0-16.641 3.166-23.763 10.287s-11.078 15.851-11.078 24.553v158.402h-82.366v-503.74h500.578v421.374l-82.415 82.366zM801.869 652.336c9.498-9.495 14.268-21.389 14.268-34.84v-437.199c0-8.704-3.955-16.644-11.076-23.765s-15.057-11.076-23.761-11.076h-538.583c-8.704 0-16.642 3.955-23.763 11.076s-11.078 15.061-11.078 23.765v535.415c0 8.704 3.956 17.433 11.078 24.554s15.059 10.287 23.763 10.287h440.365c13.478 0 25.344-4.748 34.842-14.267l83.947-83.949z" />
<glyph unicode="&#xe938;" glyph-name="cds-ico-flowchart" d="M889.508 384.074c8.356 0 15.974-3.039 22.811-9.875s10.637-15.217 10.637-23.572v-179.433c0-8.356-3.801-15.978-10.637-22.815s-14.455-10.633-22.811-10.633h-260.051c-8.356 0-15.974 3.797-22.811 10.633-6.84 6.836-10.637 14.459-10.637 22.815v179.433c0 8.356 3.797 16.736 10.637 23.572 6.836 6.836 14.455 9.875 22.811 9.875h123.175v205.287h-64.639l-144.466-144.47c-9.118-9.114-21.295-14.455-31.171-14.455s-22.053 5.317-31.166 14.455l-145.23 144.47h-63.879v-205.287h123.177c8.356 0 15.977-3.039 22.813-9.875s10.633-15.217 10.633-23.572v-179.433c0-8.356-3.797-15.978-10.633-22.815s-14.458-10.633-22.813-10.633h-260.050c-8.356 0-15.976 3.797-22.812 10.633s-10.634 14.459-10.634 22.815v179.433c0 8.356 3.798 16.736 10.634 23.572s14.456 9.875 22.812 9.875h85.148v220.503c0 9.115 3.798 16.735 10.634 23.572 6.077 6.077 14.456 9.875 22.812 9.875h82.11l145.99 145.229c9.114 9.116 20.533 13.697 30.409 13.697 11.391 0 22.811-4.558 31.924-13.697l143.712-145.229h82.87c8.356 0 16.732-3.798 22.811-9.875 6.836-6.837 10.633-14.456 10.633-23.572v-220.503h85.246zM647.713 335.409v-149.025h223.539v149.025h-223.539zM383.103 613.716l129.253-129.253 129.253 129.253-129.253 129.254-129.253-129.254zM153.485 335.409v-149.025h223.541v149.025h-223.541z" />
<glyph unicode="&#xe939;" glyph-name="cds-ico-fly-message" d="M150.91 733.417c-17.258 42.612 27.092 84.076 68.448 63.993v0l629.308-305.6c37.751-18.334 37.675-72.145-0.132-90.368l-628.438-302.916c-41.594-20.049-85.91 21.969-68.105 64.572l116.070 277.734c7.806 18.679 26.068 30.839 46.311 30.839h213.211c13.862 0 25.097-11.238 25.097-25.097 0-13.862-11.234-25.097-25.097-25.097h-213.211l-116.070-277.734 628.438 302.916-629.307 305.599 74.829-184.756c5.203-12.847-0.993-27.479-13.84-32.682s-27.479 0.993-32.682 13.84l-74.828 184.756z" />
<glyph unicode="&#xe93a;" glyph-name="cds-ico-folder" d="M844.689 523.26h-505.323c-8.704-1.583-14.267-5.538-18.224-12.659l-83.948-316.83h506.115c8.704 1.583 13.474 7.121 17.434 14.268l83.947 315.221zM885.862 554.936c6.327-9.495 10.283-19.806 10.283-30.094 0-4.745-1.579-9.493-3.162-14.268l-83.951-314.428c-8.704-30.093-35.631-50.692-65.749-52.275h-556.014c-32.467 0-59.395 26.927-59.395 59.396v489.472c0 32.467 26.928 59.395 59.395 59.395h236.020c28.512-1.583 54.645-16.641 72.872-39.613l14.268-19.807c7.121-8.704 18.223-14.267 30.882-15.85h240.794c14.268 0 25.344-11.078 25.344-25.345s-11.076-24.554-25.344-24.554h-237.602c-28.51 1.583-54.647 15.85-72.87 38.822l-14.268 19.807c-7.121 8.704-18.227 14.267-30.886 15.85h-237.603c-5.539 0-8.704-4.748-8.704-8.704v-491.849c0-3.955 0.791-5.538 4.748-7.121l87.905 329.489c8.704 30.094 36.423 49.901 66.54 51.483h505.323c15.851 0 30.067-7.121 41.173-19.807z" />
<glyph unicode="&#xe93b;" glyph-name="cds-ico-gateway" d="M796.303 672.727c-19.014 0-37.27 17.495-37.27 36.509s15.974 37.269 37.27 37.269c19.014 0 36.508-18.255 36.508-37.269s-15.217-36.509-36.508-36.509zM249.592 672.727c-20.533 0-36.509 13.697-36.509 33.447 0 20.533 13.697 40.307 36.509 40.307 19.014 0 37.269-18.255 37.269-37.269s-15.976-36.486-37.269-36.486zM521.798 709.212c-19.014 0-36.487 15.976-36.487 37.269 0 19.014 15.217 36.509 36.487 36.509 19.014 0 37.27-15.216 37.27-36.509 0-19.014-15.978-37.269-37.27-37.269zM771.973 261.37c21.291 0 36.508-17.494 36.508-36.508s-17.494-37.27-36.508-37.27c-19.014 0-37.27 18.256-37.27 37.27s15.974 36.508 37.27 36.508zM871.576 316.109c0 3.801-3.039 6.836-8.356 8.356h-679.762c-3.798 0-7.596-3.039-9.116-8.356v-183.255c0-3.801 3.798-6.836 9.116-8.356h681.281c3.797 0 7.598 3.035 9.118 8.356v183.255h-2.281zM920.998 316.109v-183.255c0-31.928-25.85-57.778-57.778-57.778h-679.762c-31.928 0-58.538 25.85-58.538 57.778v183.255c0 31.928 26.61 57.778 58.538 57.778h190.854v166.523c-1.519 13.698-6.077 26.611-15.216 35.727l-61.6 52.461c-6.077 5.317-9.116 12.178-9.116 19.774 0 5.317 1.519 10.635 5.317 15.216 5.317 6.077 12.177 9.115 19.774 9.115 5.317 0 10.634-1.519 15.216-5.317l61.601-53.221c21.295-19.014 31.928-45.625 33.448-73.755v-166.523h75.272v286.662c0 13.697 11.395 24.331 25.092 25.851 13.697 0 24.33-10.635 25.85-24.331v-288.181h72.237v166.523c1.516 28.131 14.455 54.741 33.444 73.755l61.6 53.221c4.559 3.798 9.875 5.317 15.217 5.317 7.598 0 14.459-3.038 19.775-9.115 3.797-4.558 6.074-10.635 6.074-15.976 0-6.837-3.035-13.697-9.114-19.014l-61.6-52.461c-9.118-9.116-15.974-23.572-15.974-35.727v-166.523h191.611c33.448 0 57.778-25.85 57.778-57.778zM646.517 222.581c0-13.697-10.637-24.33-24.33-24.33h-347.479c-13.697 0-25.091 10.633-25.091 24.33s11.394 25.092 25.091 25.092h349.757c12.935 0 22.053-12.153 22.053-25.092z" />
<glyph unicode="&#xe93c;" glyph-name="cds-ico-globe" d="M531.325 151.933c9.875 0 19.014 6.074 28.889 17.494 9.875 11.416 19.771 27.369 28.127 47.903s15.978 43.344 22.053 71.475c6.078 28.127 9.875 58.536 12.157 91.251-14.459-1.52-28.889-2.281-44.106-3.039h-94.29c-15.217 0.758-30.409 1.52-44.863 3.039 2.277-32.69 6.836-63.123 12.935-91.251 6.103-28.131 12.939-50.942 21.295-71.475s17.494-36.508 27.369-47.903c9.875-11.395 20.533-17.494 30.409-17.494h0.025zM613.433 164.086c28.131 9.114 53.981 22.811 77.554 39.547s44.106 37.27 60.838 60.842c16.736 23.568 30.409 49.422 40.309 77.55 9.9 28.131 14.459 58.54 14.459 89.731-29.651-22.053-75.276-38.789-137.634-47.145-2.281-44.863-8.356-86.692-17.498-124.695-9.138-38.007-22.053-69.98-38.027-95.83zM256.058 430.211c0-31.166 4.558-61.6 14.456-89.727 9.899-28.131 23.572-53.981 40.307-76.796 16.735-22.811 37.269-43.344 60.841-60.056s49.423-30.409 77.55-39.547c-15.974 25.85-28.889 57.778-38.027 95.805s-15.215 79.831-17.494 124.695c-61.601 8.356-107.961 23.572-137.633 45.625zM800.489 489.509c-5.317 25.092-12.935 47.903-24.33 69.957s-25.85 41.067-41.828 59.298c-15.974 18.231-34.963 34.207-55.497 47.144s-41.828 22.812-65.401 30.408c17.494-29.648 31.171-67.677 41.066-113.302 9.9-45.623 15.217-95.807 15.978-149.788 39.547 6.836 70.713 15.978 94.286 26.612s34.968 20.533 35.725 29.647v0.025zM449.192 696.339c-23.572-7.596-45.626-17.495-66.159-30.408s-38.788-28.889-54.74-47.144c-15.952-18.255-30.409-37.269-41.827-59.298s-19.014-44.864-24.331-69.956c0.76-9.114 12.178-19.014 35.726-29.647 23.548-10.637 54.74-19.775 94.287-26.612 0.76 53.981 6.077 104.161 15.976 149.787 9.898 45.625 23.57 83.606 41.068 113.278zM531.325 422.617c16.736 0 33.448 0 48.66 0.758 15.217 0.762 30.409 1.52 44.868 3.797v3.039c0 38.789-3.039 75.276-8.356 109.482s-12.153 63.878-21.295 88.969c-9.138 25.091-19.014 44.105-30.409 58.538-11.391 14.433-22.053 21.293-33.444 21.293-11.395 0-22.053-6.837-33.448-21.293s-21.295-33.447-30.409-58.538c-9.118-25.091-15.974-54.74-21.295-88.969-5.317-34.23-8.356-70.717-8.356-109.507v-3.035c14.459-2.281 29.651-3.039 44.868-3.801 15.217-0.758 31.928-0.758 48.66-0.758l-0.045 0.025zM531.325 757.18c44.863 0 87.45-8.356 126.976-25.851 39.522-17.495 74.51-40.307 104.161-69.956 29.647-29.649 52.462-64.639 69.956-104.163 17.494-39.526 25.85-82.112 25.85-126.975s-8.356-86.692-25.85-126.214c-17.494-39.526-40.309-74.514-69.956-104.165-29.651-29.647-64.639-53.219-104.161-70.713-39.526-17.494-82.113-25.85-126.976-25.85-44.868 0-87.454 8.356-126.976 25.85-39.524 17.494-74.514 41.066-104.163 70.713-29.649 29.651-52.461 64.639-69.956 104.165-17.495 39.522-25.851 81.351-25.851 126.214s8.355 87.45 25.851 126.975c17.495 39.524 40.307 74.514 69.956 104.163s64.639 52.461 104.163 69.956c39.522 17.495 82.108 25.851 126.976 25.851z" />
<glyph unicode="&#xe93d;" glyph-name="cds-ico-gridtower-lv" d="M477.547 810.378c-14.268 0-25.344 11.869-25.344 26.137s11.076 26.136 25.344 26.136h78.409c14.268 0 26.138-11.869 26.138-26.136s-11.87-26.137-26.138-26.137h-78.409zM803.081 862.651c14.268 0 25.344-11.869 25.344-26.136s-11.076-26.137-25.344-26.137h-78.413c-14.263 0-26.133 11.869-26.133 26.137s11.87 26.136 26.133 26.136h78.413zM324.684 836.515c0-14.268-11.869-26.137-26.136-26.137h-77.619c-14.267 0-25.345 11.869-25.345 26.137s11.078 26.136 25.345 26.136h77.619c14.267 0 26.136-11.869 26.136-26.136zM589.239 455.543v175.043h-146.534v-175.043h146.534zM763.469 784.241c13.474 0 24.55-11.078 24.55-24.554v-89.512c0-22.18-17.429-39.613-39.612-39.613h-110.878v-184.538c0-21.389-17.429-38.822-38.818-38.822h-56.23v-347.712c0-14.268-11.87-26.138-26.138-26.138s-26.138 11.87-26.138 26.138v348.501h-56.226c-21.391 0-38.824 16.644-38.824 38.007v184.538h-118.023c-22.18 0-39.613 17.433-39.613 39.613v89.512c0 13.476 11.078 25.345 24.554 25.345s24.554-11.869 24.554-25.345v-79.201h205.135v79.201c0 13.476 11.081 25.345 24.555 25.345 13.478 0 24.555-11.869 24.555-25.345v-79.201h198.016v79.201c0 13.476 11.076 24.554 24.555 24.554l0.026 0.025z" />
<glyph unicode="&#xe93e;" glyph-name="cds-ico-hide" d="M254.172 91.193c-5.317-6.078-11.394-9.118-19.014-9.118-12.937 0-25.091 10.637-25.091 24.334 0 6.074 2.279 13.697 6.077 18.252l85.148 98.087c-124.696 76.792-177.917 198.451-180.955 204.53h1.519c-4.558 10.633-7.596 20.533-7.596 33.444 0 17.494 6.837 34.968 15.976 49.422 5.317 6.836 130.773 206.048 393.102 206.048 68.436 0 127.734-14.456 177.918-34.966l88.207 101.884c5.321 6.077 11.395 9.115 19.018 9.115 13.697 0 25.088-9.875 25.088-24.331 0-6.077-2.277-12.154-6.074-16.735l-79.831-92.008c101.884-55.5 157.381-133.834 168.8-149.026h-0.758c9.871-14.459 15.974-31.928 15.974-49.426 0-12.935-2.281-23.568-6.836-33.444-4.559-9.118-114.823-266.129-401.482-266.129-68.436 0-126.976 15.217-176.398 37.27l-92.792-107.201zM878.412 448.545v-0.758c1.52 4.555 1.52 8.356 1.52 12.935 0 7.598-2.281 13.697-5.317 19.775-3.039 3.797-57.020 85.931-160.449 139.911l-62.358-71.475c25.092-29.647 40.305-67.678 40.305-109.478 0-93.528-75.272-168.804-168.8-168.804-33.448 0-64.639 9.118-90.489 25.854l-50.942-58.54c41.066-17.494 88.211-28.131 141.43-28.131 244.834 0 352.035 231.162 355.099 238.76v-0.049zM335.522 262.275l59.298 66.916c-25.091 29.647-41.067 68.436-41.067 110.264 0 93.528 76.032 169.559 169.56 169.559 33.448 0 64.639-9.875 91.251-26.61l51.7 59.297c-41.824 15.216-88.969 25.851-142.95 25.851-228.098 0-347.477-181.714-352.034-187.817v0.762c-3.038-6.078-5.317-12.153-5.317-19.775 0-4.555 0-9.114 1.519-12.153 2.279-5.317 54.74-117.858 168.042-186.294zM428.29 368.714l152.826 174.879c-17.494 10.635-37.27 16.735-58.536 16.735-64.639 0-117.102-56.258-117.102-120.897 0-25.85 8.357-50.942 22.812-70.717zM465.535 334.508c16.736-9.875 36.487-15.217 57.020-15.217 64.639 0 117.858 55.501 117.858 120.14 0 25.85-8.356 50.18-22.811 69.956l-152.068-174.879z" />
<glyph unicode="&#xe93f;" glyph-name="cds-ico-home" d="M500.937 721.15l-187.057-187.056v-339.12h374.089v339.12l-187.032 187.056zM798.233 496.067c5.317-5.317 7.594-11.395 7.594-18.256s-2.277-13.697-6.836-18.256c-4.559-4.555-11.395-7.594-18.256-7.594s-12.935 2.277-18.252 7.594l-22.815 22.815v-302.612c0-8.356-3.797-15.974-10.633-22.815-6.836-6.836-14.459-10.633-22.815-10.633h-410.595c-8.356 0-15.976 3.797-22.812 10.633-6.836 6.84-10.634 14.459-10.634 22.815v302.612l-22.812-22.815c-5.317-5.317-11.394-7.594-18.255-7.594s-13.697 3.039-18.255 7.594c-4.558 4.559-6.837 11.395-6.837 18.256s2.279 12.939 7.596 18.256l111.782 111.022v142.951c0 7.596 2.279 14.456 7.596 19.014s11.394 6.837 18.254 6.837c7.596 0 13.697-2.279 18.255-6.837s7.596-11.394 7.596-19.014v-91.249l106.442 106.441c6.836 6.837 15.974 10.635 27.369 10.635s20.533-3.798 27.369-10.635l269.951-269.165z" />
<glyph unicode="&#xe940;" glyph-name="cds-ico-import" d="M651.025 447.979c0-7.125-3.166-13.478-8.704-19.017l-151.283-152.073c-5.538-5.538-11.866-7.915-19.012-7.915-7.915 0-15.061 2.377-20.599 7.915s-7.91 12.659-7.91 20.599c0 7.121 3.162 13.474 8.704 19.012l110.084 106.129h-357.209c-7.121 0-13.476 3.166-18.224 7.915-4.748 4.745-7.121 10.287-7.121 17.434 0 7.142 2.374 14.263 7.121 19.012s11.078 6.332 18.224 6.332h357.209l-110.084 107.711c-5.542 5.539-8.704 11.869-8.704 19.015 0 7.913 2.372 14.267 7.91 19.806s12.659 8.704 20.599 8.704c7.121 0 13.474-3.956 19.012-9.495l151.283-152.073c5.538-5.538 8.704-11.87 8.704-19.012zM809.425 750.538c8.704 0 16.644-3.165 23.765-10.287s11.076-15.85 11.076-24.554v-535.418c0-8.704-3.955-16.64-11.076-23.761s-15.061-11.076-23.765-11.076h-216.239c-7.121 0-13.474 3.162-18.223 7.91s-7.121 10.287-7.121 17.434c0 7.147 2.372 14.268 7.121 19.017 4.749 4.745 11.076 6.327 18.223 6.327h197.227v503.742h-197.227c-7.121 0-13.474 3.165-18.223 7.913s-7.121 10.287-7.121 17.433c0 7.146 2.372 14.267 7.121 19.015s11.076 6.33 18.223 6.33l216.239-0.025z" />
<glyph unicode="&#xe941;" glyph-name="cds-ico-inbox" d="M789.235 391.735c7.121 0 13.478-3.166 19.021-7.915 5.538-4.749 7.91-11.081 7.91-19.021v-213.879c0-8.704-3.955-16.644-11.076-23.765-7.125-7.125-15.061-11.081-23.77-11.081h-538.682c-8.705 0-16.644 3.955-23.767 11.081-7.123 7.121-11.080 15.061-11.080 23.765v213.879c0 7.915 2.374 14.272 7.914 19.021s11.871 7.915 19.019 7.915c7.914 0 14.27-3.166 19.019-7.915s7.914-11.081 7.914-19.021v-198.050h500.668v198.050c0 7.915 3.166 14.272 7.915 19.021s11.081 7.915 19.021 7.915h-0.026zM340.849 467.785c-5.54 5.542-8.706 11.87-8.706 19.021 0 7.91 3.166 15.061 8.706 20.599 5.54 5.542 11.871 7.915 19.81 7.915 7.123 0 13.479-2.372 19.019-7.915l105.357-109.312v354.899c0 7.914 2.372 14.27 7.915 19.019 5.538 4.748 11.87 7.914 19.017 7.914 7.915 0 14.272-3.166 19.021-7.914s7.915-11.080 7.915-19.019v-354.899l105.357 109.312c5.538 5.542 11.87 7.915 19.017 7.915 7.915 0 14.272-2.372 19.81-7.915 5.542-5.538 8.708-12.663 8.708-20.599 0-7.125-3.166-13.478-8.708-19.021l-152.098-150.515c-5.542-5.542-11.87-9.498-19.021-9.498-7.147 0-13.478 3.955-19.017 9.498l-152.101 150.515z" />
<glyph unicode="&#xe942;" glyph-name="cds-ico-inductive" d="M455.283 730.85c30.409 0 56.259-14.456 76.034-34.207l3.039 2.279c19.014 19.014 44.863 31.928 73.753 31.928 57.020 0 102.646-46.384 102.646-103.403v-410.597h82.866c14.459 0 25.092-10.633 25.092-25.092 0-14.455-11.395-26.612-25.85-26.612h-107.962c-14.455 0-26.608 12.157-26.608 26.612v435.689c0 27.37-22.815 50.182-50.184 50.182s-50.18-22.812-50.18-50.182v-407.557c0-14.459-12.157-26.612-26.612-26.612s-26.612 12.153-26.612 26.612c0 0.758 0.762 0.758 0.762 1.52v406.038c0 27.37-22.815 50.182-50.184 50.182s-50.941-22.812-50.941-50.182v-435.689c0-14.455-12.154-26.612-26.61-26.612h-107.201c-14.457 0-26.61 12.157-26.61 26.612 0 14.459 11.394 25.092 25.851 25.092h82.11v410.597c0 57.019 46.384 103.403 103.402 103.403z" />
<glyph unicode="&#xe943;" glyph-name="cds-ico-info-circle" d="M549.675 599.327c0-20.539-16.759-38.039-37.321-38.039s-37.321 17.5-37.321 38.039c0 20.539 16.759 36.495 37.321 36.495s37.321-15.98 37.321-36.495zM512.38 511.876c14.473 0 25.886-12.16 25.886-26.62v-187.106c0-14.46-11.413-26.62-25.886-26.62-14.477 0-26.65 12.16-26.65 26.62v187.106c0 14.46 12.173 26.62 26.65 26.62zM512.38 146.803c166.746 0 300.74 134.63 300.74 301.175s-133.995 301.936-300.74 301.936c-166.75 0-301.504-135.392-301.504-301.936s134.778-301.175 301.504-301.175zM512.38 799.375c194.155 0 350.989-157.427 350.989-351.371 0-193.946-156.834-351.373-350.989-351.373-194.158 0-351.755 157.427-351.755 351.373 0 193.944 157.597 351.371 351.755 351.371z" />
<glyph unicode="&#xe944;" glyph-name="cds-ico-info-circle-solid" d="M512.38 567.657c27.465 0 48.073 20.583 48.073 48.019s-22.131 48.78-48.073 48.78c-27.469 0-48.073-22.867-48.073-48.78 0-27.436 22.131-48.019 48.073-48.019zM545.946 268.122v219.511c0 17.536-14.511 32.768-32.043 32.768s-32.038-15.253-32.038-32.768v-219.511c0-17.536 14.507-32.004 32.038-32.004s32.043 14.49 32.043 32.004zM512.38 799.375c195.337 0 350.989-157.001 350.989-348.316 0-195.119-153.365-354.428-350.989-354.428-193.053 0-351.755 158.545-351.755 351.36 0 192.812 155.652 351.36 351.755 351.36v0.024z" />
<glyph unicode="&#xe945;" glyph-name="cds-ico-in-outs" d="M801.636 322.044c12.939 0 23.572-10.633 23.572-23.572 0-12.935-10.633-23.568-23.572-23.568h-249.389l72.233-67.678c3.801-4.559 6.078-10.637 6.078-16.736 0-13.697-11.395-25.092-25.092-25.092-6.078 0-12.153 3.039-16.736 6.836l-108.72 108.72c-4.555 4.559-6.836 10.637-6.836 17.498 0 6.857 2.281 12.935 6.836 17.494l108.72 108.72c4.559 3.797 10.637 6.836 16.736 6.836 13.697 0 25.092-11.395 25.092-25.092 0-6.074-2.277-12.153-6.078-16.736l-72.233-67.674 249.389 0.045zM747.659 633.773l-72.995 68.437c-5.317 4.558-8.356 11.394-8.356 19.014 0 13.697 11.395 25.091 25.092 25.091 7.594 0 14.455-3.038 19.014-8.356l108.72-109.48c4.555-4.558 7.594-10.634 7.594-17.495s-3.039-13.697-7.594-18.255l-109.507-109.504c-4.555-5.317-11.391-8.356-19.014-8.356-13.697 0-25.088 11.395-25.088 25.092 0 7.594 3.035 14.455 8.356 19.014l73.753 68.437h-249.393c-12.935 0-23.572 10.634-23.572 23.572s10.637 22.812 23.572 22.812l249.418-0.024zM416.158 214.061c13.697 0 25.088-10.633 25.088-24.33s-11.391-24.334-25.088-24.334h-208.35c-18.255 0-32.687 14.459-32.687 32.69v515.517c0 18.255 14.456 32.687 32.687 32.687h208.35c13.697 0 25.088-10.634 25.088-24.331s-11.391-24.331-25.088-24.331h-189.336v-483.592l189.336 0.025z" />
<glyph unicode="&#xe946;" glyph-name="cds-ico-lightning" d="M256.602 547.619l229.618-105.681c9.118-3.039 15.217-12.153 15.217-22.811 0-3.801-0.758-6.84-2.277-9.875l-103.404-212.148 340.641 268.407-191.615 119.378c-7.594 3.798-12.935 11.394-12.935 20.533 0 4.558 0.758 8.356 3.039 11.394l64.639 117.86h-251.672l-91.249-187.057zM346.308 111.174c-13.697 0-25.091 11.391-25.091 25.088 0 3.801 0.76 7.598 2.279 10.637l120.138 260.809-230.377 105.681c-8.356 3.797-14.456 12.939-14.456 22.815 0 3.797 0.759 7.594 2.279 10.633l107.201 222.022c3.798 8.356 12.154 13.697 22.053 13.697h310.233c13.697 0 25.092-11.394 25.092-25.091 0-4.558-0.762-8.356-3.039-12.154l-72.237-131.532 202.248-126.214c6.836-4.559 12.157-12.939 12.157-22.053 0-8.356-3.801-15.217-9.875-19.775l-433.41-329.245c-4.558-3.039-9.851-5.317-15.192-5.317z" />
<glyph unicode="&#xe947;" glyph-name="cds-ico-line-graph" d="M784.912 457.531c16.732 0 31.166 14.455 31.166 31.166s-14.455 31.171-31.166 31.171c-16.712 0-30.409-14.459-30.409-31.171s13.697-31.166 30.409-31.166zM607.756 202.039c16.732 0 31.166 14.455 31.166 31.166s-14.459 30.409-31.166 30.409c-16.712 0-31.171-13.697-31.171-30.409s14.459-31.166 31.171-31.166zM356.083 684.87c0-16.735 14.457-31.168 31.168-31.168s30.41 14.457 30.41 31.168c0 16.712-13.698 31.168-30.41 31.168s-31.168-14.456-31.168-31.168zM216.171 398.991c16.735 0 31.168 13.697 31.168 30.409s-14.456 31.171-31.168 31.171c-16.711 0-29.649-14.459-29.649-31.171s12.938-30.409 29.649-30.409zM784.912 567.794c43.344 0 79.831-35.724 79.831-79.072 0-43.344-36.512-79.069-79.831-79.069-7.598 0-13.697 1.52-20.533 3.035l-93.528-131.531c10.633-13.697 15.974-31.166 15.974-48.665 0-44.863-34.206-79.069-79.069-79.069-44.868 0-79.831 34.206-79.831 79.069 0 20.533 6.836 40.309 20.533 54.743l-147.51 320.106c-4.558-0.76-8.356-1.519-12.937-1.519-7.596 0-15.216 0.759-21.293 2.279l-85.932-132.294h-0.76c9.875-13.693 15.216-29.647 15.216-46.383 0-44.863-34.207-79.831-79.072-79.831s-79.071 34.968-79.071 79.831c0 44.868 34.207 79.073 79.071 79.073h0.76c8.356 0 15.976-0.762 22.812-3.039l85.148 130.773c-11.394 14.456-16.735 31.168-16.735 49.423 0 44.865 34.966 79.831 79.831 79.831s79.071-34.966 79.071-79.831c0-21.293-7.594-39.548-21.291-53.98l146.747-320.107c5.317 0.758 9.875 1.52 15.217 1.52 7.594 0 14.455-1.52 21.291-3.797l94.29 130.773c-10.637 13.697-17.498 31.166-17.498 48.66 0 44.868 34.23 79.072 79.098 79.072z" />
<glyph unicode="&#xe948;" glyph-name="cds-ico-list" d="M806.961 237.453c14.455 0 25.088-11.395 25.088-25.85s-10.633-24.33-25.088-24.33h-552.030c-14.456 0-24.331 9.875-24.331 24.33s9.875 25.85 24.331 25.85h552.030zM806.961 388.002c14.455 0 25.088-10.633 25.088-25.092 0-14.455-10.633-25.092-25.088-25.092h-552.030c-14.456 0-24.331 10.637-24.331 25.092 0 14.459 9.875 25.092 24.331 25.092h552.030zM806.961 537.788c14.455 0 25.088-9.875 25.088-24.33 0-14.459-10.633-25.092-25.088-25.092h-552.030c-14.456 0-24.331 10.633-24.331 25.092 0 14.455 9.875 24.33 24.331 24.33h552.030zM254.931 638.913c-14.456 0-24.331 10.634-24.331 25.091s9.875 24.331 24.331 24.331h552.030c14.455 0 25.088-9.875 25.088-24.331s-10.633-25.091-25.088-25.091h-552.030z" />
<glyph unicode="&#xe949;" glyph-name="cds-ico-lock" d="M499.036 382.603c7.598 0 13.697-3.039 18.256-7.598s7.594-10.633 7.594-18.252v-109.507c0-7.594-3.035-13.697-7.594-18.252-4.559-4.559-10.633-7.598-18.256-7.598-6.836 0-12.935 3.039-18.252 7.598-5.321 4.555-7.598 10.633-7.598 18.252v109.507c0 7.594 2.277 13.693 7.598 18.252 5.317 4.559 11.391 7.598 18.252 7.598zM311.981 451.039v-241.795c0-15.978 5.317-28.889 15.976-39.547 10.658-10.662 23.572-16.736 38.028-16.736h266.126c14.459 0 27.374 6.074 38.031 16.736 10.658 10.658 15.974 23.568 15.974 39.547v241.795h-374.136zM606.237 499.704v135.353c0 15.216-3.035 29.648-8.356 42.586-5.317 12.937-12.935 24.332-22.811 34.207s-21.291 18.255-34.206 23.572c-12.915 5.317-27.369 7.596-41.828 7.596-14.455 0-28.889-2.279-41.824-7.596-12.939-5.317-24.334-13.697-34.206-23.572-9.875-9.875-17.497-21.293-22.814-34.207s-8.356-27.37-8.356-42.586v-135.353h214.401zM704.324 499.704c8.356 0 15.974-3.801 22.811-10.637 6.84-6.836 10.637-14.455 10.637-22.811v-257.012c0-14.459-3.039-28.131-8.356-41.066-5.317-12.939-12.939-23.572-22.053-32.69-9.118-9.114-20.533-16.732-33.448-22.053-12.915-5.317-27.369-9.114-41.824-9.114h-266.129c-14.456 0-28.889 3.797-41.826 9.114-12.937 5.321-24.331 12.939-33.447 22.053-9.116 9.118-16.735 19.775-22.053 32.69-5.317 12.911-8.356 26.608-8.356 41.066v257.012c0 8.356 3.798 15.974 10.635 22.811s14.456 10.637 22.812 10.637h46.384v135.353c0 22.052 4.558 41.826 12.937 60.84s19.014 35.726 33.447 50.182c14.433 14.457 31.17 25.091 50.183 33.447s40.305 12.154 62.358 12.154c22.053 0 42.586-3.798 62.362-12.154 19.771-8.356 35.725-19.014 50.18-33.447 14.459-14.433 25.092-31.168 33.448-50.182s12.939-38.788 12.939-60.84v-135.353h46.359z" />
<glyph unicode="&#xe94a;" glyph-name="cds-ico-logout" d="M717.513 603.724c0 15.219 11.395 26.615 27.374 26.615 8.356 0 14.459-3.039 19.018-7.598l136.901-146.017c4.559-3.039 9.875-10.637 9.875-18.256 0-7.623-6.078-14.459-9.875-18.26l-136.901-145.256c-4.559-4.559-9.875-8.356-18.26-8.356h-0.758c-15.221 0-27.374 11.395-27.374 26.616 0 7.594 3.797 15.217 8.356 19.018l104.182 100.381h-367.272c-14.459 0-26.616 10.637-26.616 25.096v0.762c0 8.356 4.559 12.939 8.356 18.256 5.321 5.321 8.36 7.598 18.26 7.598h367.272l-104.182 101.143c-4.559 3.799-8.356 10.636-8.356 18.258zM616.604 199.913c0-17.498-15.217-32.694-33.452-32.694h-295.451c-15.219 0-24.336 11.395-30.414 21.295-1.52 3.801-2.279 7.598-2.279 12.157v517.895c0 15.979 11.396 24.336 21.297 30.414 3.799 1.52 6.837 2.279 11.396 2.279h295.451c18.26 0 33.452-14.459 33.452-32.693v-88.465c0-15.219-9.114-25.096-24.334-25.096h-0.758c-12.943 0-23.577 12.156-23.577 25.856v69.447h-265.039v-481.402h265.039v69.448c0 13.697 9.114 25.096 23.577 25.096h0.758c15.978 0 24.334-9.118 24.334-25.096v-88.441z" />
<glyph unicode="&#xe94b;" glyph-name="cds-ico-magnifying-glass-left" d="M211.601 549.115c0-28.128 4.558-53.978 15.216-78.313 10.658-24.33 25.091-46.383 43.346-64.639 18.255-18.252 39.548-31.928 63.879-42.586s50.182-15.217 78.31-15.217c27.374 0 53.223 4.559 77.554 15.217s45.625 24.334 63.881 42.586c18.252 18.256 31.924 40.309 42.582 64.639 10.662 24.334 15.978 50.184 15.978 78.313s-5.317 54.74-15.978 79.072c-10.658 24.331-24.33 45.625-42.582 63.879-18.256 18.255-39.551 33.447-63.881 44.105s-50.18 15.216-77.554 15.216c-28.128 0-53.979-4.558-78.31-15.216s-45.625-25.851-63.879-44.105c-18.255-18.254-32.687-39.547-43.346-63.879s-15.216-50.942-15.216-79.072zM830.546 140.063c5.321-5.321 7.598-11.395 7.598-18.256s-3.039-13.697-7.598-18.256c-4.555-4.555-10.633-7.594-17.494-7.594s-12.935 2.277-18.256 7.594l-239.514 240.275c-20.533-13.693-43.348-25.088-66.92-32.686-23.572-7.594-49.422-11.395-76.030-11.395-34.968 0-68.438 6.836-98.847 19.775-30.409 12.935-57.019 30.409-79.831 53.219-22.812 22.815-41.067 48.665-53.98 79.073s-19.774 63.119-19.774 97.325c0 34.207 6.837 66.918 19.774 97.326s31.168 57.779 53.98 80.591c22.812 22.812 49.422 40.307 79.831 53.221s63.879 19.774 98.847 19.774c34.963 0 67.674-6.837 98.083-19.774s57.020-30.408 79.831-53.221c22.815-22.812 41.066-50.182 53.981-80.591s19.775-63.119 19.775-97.326c0-33.448-6.836-64.639-19.014-94.286-12.182-29.651-28.893-56.259-50.942-79.073l236.499-235.717z" />
<glyph unicode="&#xe94c;" glyph-name="cds-ico-maximize-square" d="M773.781 185.856v522.756h-523.549v-522.756h523.549zM799.125 761.651c15.057 0 26.138-11.869 26.138-26.928v-575.031c0-15.057-11.081-25.344-26.138-25.344h-574.239c-15.059 0-26.137 10.287-26.137 25.344v575.031c0 15.059 11.078 26.928 26.137 26.928h574.239zM564.685 242.876c-11.866 0-21.389 10.287-21.389 22.182 0 11.891 9.498 20.595 21.389 20.595h72.875l-79.996 79.202c-4.745 4.749-6.327 9.493-6.327 16.64 0 15.061 11.076 26.138 26.138 26.138 7.121 0 12.659-1.583 17.429-6.332l79.202-78.409v72.87c0 11.87 9.493 21.389 21.389 21.389s20.599-9.493 20.599-21.389v-130.684c0-11.866-8.704-22.178-20.599-22.178l-130.709-0.026zM328.642 477.312c-11.869 0-20.598 11.081-20.598 22.972v130.685c0 11.869 8.704 20.598 20.598 20.598h130.682c11.87 0 22.182-8.704 22.182-20.598s-10.287-22.971-22.182-22.971h-72.079l78.411-76.827c4.749-4.749 7.121-11.076 7.121-18.223 0-15.061-11.87-26.138-26.927-26.138-7.121 0-12.663 1.583-17.434 6.332l-78.41 79.199v-72.078c0-11.87-9.495-22.972-21.389-22.972l0.025 0.021z" />
<glyph unicode="&#xe94d;" glyph-name="cds-ico-middle-dot" d="M601.114 358.886c-22.178-22.972-53.854-37.214-88.721-37.214h-1.583c-69.705 0-125.935 57.020-125.935 126.724 0 69.709 56.23 125.937 125.935 125.937h1.583c34.842 0 66.543-14.268 88.721-37.214 22.972-22.973 38.007-53.855 38.007-88.722 0-34.863-15.061-66.539-38.007-89.51z" />
<glyph unicode="&#xe94e;" glyph-name="cds-ico-mini-arrow-down" d="M530.227 355.328c-5.542-5.542-11.081-7.915-18.227-7.915-7.142 0-13.474 2.372-19.012 7.915l-147.325 148.113c-5.539 5.538-8.704 11.081-8.704 19.017 0 15.058 11.078 26.136 26.137 26.136 7.913 0 14.267-3.165 19.806-8.704l129.099-129.1 129.101 129.1c5.538 5.539 11.081 8.704 19.017 8.704 15.057 0 26.927-10.287 26.927-25.347 0-7.91-3.166-14.268-8.704-19.806l-148.113-148.113z" />
<glyph unicode="&#xe94f;" glyph-name="cds-ico-mini-arrow-left" d="M419.329 466.223l148.116 148.115c5.538 5.539 11.87 8.704 19.806 8.704 15.057 0 25.344-11.869 25.344-26.928 0-7.913-3.162-13.476-8.704-19.015l-129.101-129.099 129.101-129.101c5.542-5.538 8.704-11.87 8.704-19.806 0-15.061-11.076-26.138-26.133-26.138-7.915 0-13.478 3.166-19.017 8.704l-148.116 147.324c-5.539 5.538-7.913 11.87-7.913 19.017 0 7.142 2.374 12.659 7.913 18.223z" />
<glyph unicode="&#xe950;" glyph-name="cds-ico-mini-arrow-left-end" d="M498.342 466.253l148.279 148.276c5.542 5.545 11.883 8.713 19.827 8.713 15.074 0 25.374-11.882 25.374-26.957 0-7.921-3.17-13.491-8.717-19.036l-129.237-129.241 129.237-129.242c5.547-5.542 8.717-11.883 8.717-19.827 0-15.074-11.089-26.163-26.167-26.163-7.919 0-13.491 3.166-19.034 8.713l-148.279 147.486c-5.542 5.542-7.919 11.878-7.919 19.034s2.377 12.676 7.919 18.244zM357.266 621.698c13.862 0 25.1-11.238 25.1-25.1v-298.743c0-13.862-11.238-25.101-25.1-25.101s-25.1 11.238-25.1 25.101v298.743c0 13.862 11.237 25.1 25.1 25.1z" />
<glyph unicode="&#xe951;" glyph-name="cds-ico-mini-arrow-right" d="M605.474 466.223c5.538-5.538 7.121-11.081 7.121-18.223 0-7.147-1.583-13.478-7.121-19.017l-148.907-147.324c-5.538-5.538-10.287-8.704-18.223-8.704-15.059 0-26.928 11.076-26.928 26.138 0 7.91 3.165 14.268 8.704 19.806l129.102 129.101-129.102 129.099c-5.539 5.539-8.704 11.078-8.704 19.015 0 15.059 11.078 26.928 26.138 26.928 7.91 0 13.474-3.165 19.012-8.704l148.907-148.115z" />
<glyph unicode="&#xe952;" glyph-name="cds-ico-mini-arrow-right-end" d="M525.658 429.747l-148.279-148.275c-5.545-5.547-11.882-8.713-19.828-8.713-15.075 0-25.373 11.878-25.373 26.957 0 7.919 3.168 13.491 8.713 19.034l129.239 129.242-129.239 129.24c-5.545 5.545-8.713 11.882-8.713 19.828 0 15.075 11.090 26.165 26.165 26.165 7.921 0 13.491-3.168 19.036-8.713l148.278-147.486c5.542-5.542 7.919-11.878 7.919-19.034s-2.377-12.676-7.919-18.244zM666.735 274.304c-13.862 0-25.101 11.234-25.101 25.097v298.744c0 13.862 11.238 25.1 25.101 25.1s25.097-11.238 25.097-25.1v-298.744c0-13.862-11.234-25.097-25.097-25.097z" />
<glyph unicode="&#xe953;" glyph-name="cds-ico-mini-arrow-up" d="M530.227 540.681l148.113-148.907c5.538-5.538 8.704-11.076 8.704-19.017 0-15.057-11.87-25.344-26.927-25.344-7.915 0-13.478 2.372-19.017 7.915l-129.101 129.101-129.099-129.101c-5.539-5.542-11.869-7.915-19.806-7.915-15.059 0-26.137 11.076-26.137 26.138 0 7.91 3.165 12.659 8.704 18.223l147.325 148.907c5.538 5.539 11.87 7.913 19.012 7.913 7.147 0 12.663-2.374 18.227-7.913z" />
<glyph unicode="&#xe954;" glyph-name="cds-ico-minus-circle" d="M686.037 474.125c7.347 0 13.905-1.634 18.803-6.532s7.347-12.245 7.347-19.618c0-7.373-2.449-13.060-7.347-17.984s-11.43-8.166-18.803-8.166h-348.106c-7.347 0-13.904 3.268-18.802 8.166s-7.347 10.611-7.347 17.984c0 7.373 2.449 14.72 7.347 19.618s11.429 6.532 18.802 6.532h348.106zM511.996 148.902c40.87 0 79.266 8.162 115.213 23.697 35.947 15.539 67.021 36.766 93.986 63.731s48.218 58.829 63.727 95.616c15.509 36.787 22.882 74.368 22.882 116.028s-7.347 80.896-22.882 117.66c-15.535 36.762-36.762 67.836-63.727 94.801s-58.014 48.217-93.986 63.728c-35.972 15.511-74.368 22.884-115.213 22.884-40.841 0-79.262-7.348-115.209-22.884-35.946-15.537-67.019-36.762-93.985-63.728s-48.217-58.013-63.728-94.801c-15.511-36.789-22.884-76-22.884-117.685s7.347-79.266 22.884-116.028c15.537-36.762 36.762-68.651 63.728-95.616s58.014-48.218 93.985-63.731c35.973-15.509 74.368-23.697 115.209-23.697v0.026zM511.996 799.372c48.218 0 93.986-8.98 136.465-27.782 42.475-18.802 80.081-43.319 111.945-75.183s56.38-69.468 75.183-111.945c18.803-42.477 27.78-88.244 27.78-136.462s-8.977-93.167-27.78-135.646c-18.803-42.479-43.319-80.081-75.183-111.945s-69.47-57.199-111.945-76.002c-42.479-18.799-88.247-27.78-136.465-27.78-48.213 0-93.983 8.981-136.46 27.78-42.477 18.803-80.081 44.139-111.945 76.002s-56.381 69.466-75.183 111.945c-18.802 42.479-27.782 87.428-27.782 135.646s8.98 93.985 27.782 136.462c18.802 42.477 43.319 80.081 75.183 111.945s69.468 56.381 111.945 75.183c42.477 18.802 88.247 27.782 136.46 27.782z" />
<glyph unicode="&#xe955;" glyph-name="cds-ico-mobile-comms" d="M485.483 362.048c-46.737 11.87-82.368 53.854-82.368 103.753 0 58.607 50.692 106.922 109.295 106.922 60.186 0 106.129-48.315 106.129-106.922 0-50.688-35.631-91.883-81.574-103.753v-186.121c0-15.061-10.287-26.138-25.348-26.138-15.057 0-26.133 11.076-26.133 26.138v186.121zM374.58 326.417c5.539-5.538 7.121-11.081 7.121-19.017s-1.583-12.659-7.121-15.851c-5.539-5.538-11.869-7.91-19.806-7.91s-12.66 2.372-18.224 7.91c-23.763 22.182-38.822 48.316-52.273 78.409-11.869 30.093-18.224 62.562-18.224 94.263 0 31.697 6.33 64.166 18.224 93.467 13.476 30.093 30.093 57.021 52.273 79.201 5.539 5.539 10.286 7.913 18.224 7.913s14.267-2.374 19.806-7.913l1.583-1.583c4.748-4.748 7.121-10.287 7.121-16.641s-3.165-13.476-8.704-18.224c-18.224-18.224-33.258-41.196-42.778-63.376-9.495-23.761-15.059-49.898-15.059-75.247 0-25.344 5.539-51.482 15.059-75.243 9.495-19.806 24.554-41.988 42.778-60.186v0.026zM742.891 559.271c11.87-30.094 17.434-62.559 17.434-94.26s-5.538-64.166-17.434-93.47c-13.474-30.093-30.093-56.226-53.854-78.409-5.542-5.538-10.287-7.91-18.227-7.91-7.936 0-13.474 2.372-19.012 7.91s-7.121 10.287-7.121 18.223c0 5.538 1.583 12.663 7.121 15.851 18.223 16.64 34.048 40.405 43.567 64.166 9.519 23.765 15.061 49.899 15.061 75.247 0 25.344-5.542 51.482-15.061 75.244-9.493 22.18-25.344 43.569-43.567 61.769-3.166 5.539-7.121 11.869-7.121 19.806 0 5.539 1.583 12.685 7.121 15.85 5.538 5.539 11.076 7.913 19.012 7.913 7.94 0 12.663-2.374 18.227-7.913 22.178-22.18 40.401-49.924 53.854-80.017zM571.802 465.801c0 32.469-26.927 59.396-58.603 59.396h-2.372c-32.465 0-57.813-26.138-57.813-57.813 0-34.048 24.555-61.769 58.603-61.769h3.166c31.676 0 57.020 26.931 57.020 60.186zM792 729.567c71.287-73.662 106.918-167.922 106.918-262.158 0-99.008-39.612-198.805-116.442-272.469-5.538-4.745-12.659-7.91-19.012-7.91-5.538 0-11.081 2.372-15.851 7.91-4.774 5.542-7.121 11.87-7.121 18.227 0 6.353 2.372 11.866 7.121 16.64 1.583 1.583 6.332 5.538 7.91 7.121 61.769 64.166 92.681 146.534 92.681 228.898 0 86.324-34.052 172.671-100.591 237.604-4.749 4.748-7.121 11.869-7.121 18.224s2.372 12.66 7.121 17.433c4.749 4.772 11.076 7.121 17.434 7.121 6.353 0 12.659-2.374 17.429-7.121l9.523-9.52zM174.983 465.801c0-90.3 36.423-178.206 101.381-238.391 4.748-4.749 7.121-11.081 7.121-17.434s-2.374-11.87-7.121-16.64c-4.748-4.774-11.078-7.121-17.433-7.121s-12.685 2.372-17.432 7.121c-3.165 3.166-6.33 5.538-9.495 8.704-71.288 73.66-106.92 167.919-106.92 262.946 0 99.8 39.613 198.807 116.44 274.052 5.539 4.748 11.869 7.121 18.224 7.121s11.869-2.374 16.641-7.121c4.748-5.539 7.121-11.869 7.121-18.224s-2.374-12.66-7.121-17.433c-64.958-62.56-101.381-147.324-101.381-237.602l-0.025 0.021z" />
<glyph unicode="&#xe956;" glyph-name="cds-ico-mobile-coms" horiz-adv-x="983" d="M466.244 370.328c-44.868 11.391-79.073 51.7-79.073 99.602 0 56.259 48.664 102.644 104.923 102.644 57.778 0 101.884-46.385 101.884-102.644 0-48.66-34.206-88.211-78.311-99.602v-178.68c0-14.455-9.875-25.088-24.334-25.088-14.455 0-25.088 10.633-25.088 25.088v178.68zM359.777 336.118c5.317-5.317 6.836-10.633 6.836-18.252 0-7.623-1.519-12.157-6.836-15.217-5.317-5.317-11.394-7.598-19.014-7.598s-12.154 2.281-17.495 7.598c-22.812 21.291-37.269 46.383-50.182 75.272-11.394 28.889-17.495 60.060-17.495 90.489 0 30.433 6.077 61.6 17.495 89.731 12.937 28.889 28.889 54.74 50.182 76.033 5.317 5.317 9.875 7.596 17.495 7.596s13.697-2.279 19.014-7.596l1.519-1.519c4.558-4.558 6.836-9.875 6.836-15.976s-3.038-12.937-8.355-17.495c-17.495-17.495-31.928-39.548-41.067-60.839-9.116-22.815-14.456-47.907-14.456-72.237s5.317-49.422 14.456-72.233c9.115-19.018 23.572-40.309 41.067-57.778v0.020zM713.355 559.66c11.395-28.888 16.736-60.059 16.736-90.488 0-30.433-5.317-61.6-16.736-89.731-12.939-28.889-28.889-53.981-51.7-75.272-5.321-5.317-9.875-7.598-17.498-7.598-7.619 0-12.935 2.281-18.252 7.598-5.321 5.317-6.836 9.875-6.836 17.494 0 5.317 1.516 12.153 6.836 15.217 17.494 15.974 32.686 38.789 41.824 61.6s14.459 47.903 14.459 72.233c0 24.334-5.321 49.422-14.459 72.237-9.114 21.292-24.33 41.826-41.824 59.297-3.039 5.317-6.836 11.394-6.836 19.014 0 5.317 1.516 12.177 6.836 15.216 5.317 5.317 10.633 7.596 18.252 7.596 7.623 0 12.157-2.279 17.498-7.596 21.291-21.293 38.785-47.927 51.7-76.816zM549.11 469.93c0 31.171-25.85 57.020-56.259 57.020h-2.277c-31.166 0-55.501-25.092-55.501-55.501 0-32.686 23.572-59.298 56.259-59.298h3.039c30.409 0 54.739 25.85 54.739 57.778zM760.5 723.144c68.436-70.716 102.642-161.205 102.642-251.67 0-95.048-38.027-190.853-111.784-261.571-5.317-4.559-12.153-7.594-18.252-7.594-5.317 0-10.637 2.277-15.217 7.594-4.583 5.317-6.836 11.395-6.836 17.494 0 6.103 2.277 11.395 6.836 15.978 1.52 1.52 6.078 5.317 7.594 6.836 59.298 61.6 88.973 140.669 88.973 219.742 0 82.869-32.69 165.763-96.567 228.098-4.559 4.558-6.836 11.394-6.836 17.495s2.277 12.154 6.836 16.735c4.559 4.582 10.633 6.837 16.736 6.837 6.099 0 12.153-2.279 16.732-6.837l9.142-9.139zM168.163 469.93c0-86.692 34.966-171.078 97.326-228.86 4.558-4.555 6.837-10.633 6.837-16.732 0-6.103-2.279-11.395-6.837-15.978-4.558-4.579-10.634-6.836-16.735-6.836s-12.178 2.281-16.735 6.836c-3.038 3.039-6.077 5.321-9.115 8.356-68.437 70.717-102.643 161.206-102.643 252.432 0 95.806 38.028 190.854 111.782 263.088 5.317 4.558 11.394 6.837 17.495 6.837s11.394-2.279 15.976-6.837c4.558-5.317 6.837-11.394 6.837-17.495s-2.279-12.154-6.837-16.735c-62.36-60.057-97.326-141.431-97.326-228.1l-0.024 0.025z" />
</font>
</defs>
</svg>
